<?xml version="1.0" encoding="UTF-8"?>
<svg version="1.1" xmlns="http://www.w3.org/2000/svg" width="909" height="399">
<path d="M0 0 C0.70867065 29.01552031 -3.44832896 52.81915918 -23.78125 74.7109375 C-29.63546467 80.75067306 -35.30105961 84.56885491 -43 88 C-43.79937988 88.35803711 -44.59875977 88.71607422 -45.42236328 89.08496094 C-53.02898009 92.17353885 -59.96548565 92.69856719 -68.125 92.625 C-69.40528076 92.615896 -70.68556152 92.60679199 -72.00463867 92.59741211 C-82.37659341 92.34607021 -90.79294183 90.72235261 -100 86 C-100.68336426 85.65727051 -101.36672852 85.31454102 -102.07080078 84.96142578 C-115.76910461 77.96876182 -128.06681061 69.09402554 -138.875 58.125 C-141.00817151 55.8529129 -141.00817151 55.8529129 -144 54 C-143.566875 54.48210937 -143.13375 54.96421875 -142.6875 55.4609375 C-142.130625 56.09257812 -141.57375 56.72421875 -141 57.375 C-140.443125 58.00148437 -139.88625 58.62796875 -139.3125 59.2734375 C-138 61 -138 61 -138 63 C-137.12214844 63.38091797 -137.12214844 63.38091797 -136.2265625 63.76953125 C-133.76189741 65.13158301 -132.28130215 66.62301533 -130.375 68.6875 C-125.98848934 73.17112898 -121.26438013 76.61409912 -116 80 C-115.15308594 80.56460938 -114.30617187 81.12921875 -113.43359375 81.7109375 C-104.64035957 87.23954278 -95.09377983 90.55908282 -85.38330078 94.12158203 C-57.80616729 104.28574166 -57.80616729 104.28574166 -50.9140625 117.00390625 C-48.44785894 122.7847779 -48.00475765 128.18014666 -50.125 134.1875 C-53.28771566 138.93157349 -57.40735684 142.60183921 -63 144 C-77.34444619 145.39218195 -87.25248475 137.78270442 -98 129 C-97.38125 130.155 -96.7625 131.31 -96.125 132.5 C-91.59307576 140.95959191 -91.66280175 149.49954469 -91.6875 158.875 C-91.66333008 160.69837891 -91.66333008 160.69837891 -91.63867188 162.55859375 C-91.63471408 169.89635241 -92.36861104 176.13919654 -95 183 C-95.2899585 183.75643799 -95.57991699 184.51287598 -95.87866211 185.29223633 C-104.8335285 207.65913019 -123.57292032 226.62189617 -145.69921875 236.1640625 C-154.31085259 239.54432999 -154.31085259 239.54432999 -159 238 C-161.44876309 236.70775435 -163.77662656 235.39031238 -166.125 233.9375 C-166.78806152 233.53047852 -167.45112305 233.12345703 -168.13427734 232.70410156 C-190.58190856 218.77258448 -207.29816174 200.80720675 -215 175 C-216.51358865 167.43205674 -216.17496673 159.69020428 -216 152 C-215.97486328 150.75669922 -215.97486328 150.75669922 -215.94921875 149.48828125 C-215.50070196 142.55549321 -212.65849859 136.34704275 -210 130 C-210.66 130 -211.32 130 -212 130 C-212.23203125 130.59683594 -212.4640625 131.19367188 -212.703125 131.80859375 C-214.33303775 134.56275354 -215.98035483 135.48883797 -218.75 137.0625 C-219.64460938 137.57296875 -220.53921875 138.0834375 -221.4609375 138.609375 C-230.59946872 143.61447825 -237.38120957 144.99281856 -247.75 143.4375 C-252.91705656 141.15207114 -255.69328986 137.37583662 -258.375 132.5 C-260.16169056 125.35323774 -258.63960354 119.25894086 -255 113 C-247.28040088 103.97545847 -236.37238202 99.9443823 -225.5 95.9375 C-206.17935616 88.73149916 -189.77789519 80.45305761 -173.875 67.125 C-173.30587891 66.64836914 -172.73675781 66.17173828 -172.15039062 65.68066406 C-169.15056301 63.19297189 -169.15056301 63.19297189 -167 60 C-166.34 60 -165.68 60 -165 60 C-164.34 58.35 -163.68 56.7 -163 55 C-164.18975254 54.88497893 -164.18975254 54.88497893 -165.34765625 56.28515625 C-165.91355469 56.87167969 -166.47945312 57.45820313 -167.0625 58.0625 C-185.66839708 76.81844463 -209.93576866 92.88784768 -237.13793945 93.19091797 C-252.51885984 93.16602687 -265.51215116 90.71277132 -278 81 C-278 80.34 -278 79.68 -278 79 C-278.58136719 78.74089844 -279.16273438 78.48179687 -279.76171875 78.21484375 C-287.71192085 73.89981259 -292.61437884 65.60174335 -297 58 C-297.37898438 57.35546875 -297.75796875 56.7109375 -298.1484375 56.046875 C-304.93491994 43.55974732 -307.12916586 30.30523114 -307.625 16.3125 C-307.6765625 15.06404297 -307.728125 13.81558594 -307.78125 12.52929688 C-307.82507813 11.34013672 -307.86890625 10.15097656 -307.9140625 8.92578125 C-307.9548291 7.83692627 -307.9955957 6.74807129 -308.03759766 5.6262207 C-308 3 -308 3 -307 1 C-303.27006661 1.73787813 -300.94899915 3.43155115 -297.89453125 5.67578125 C-290.70380331 10.70187769 -282.22289782 13.18123372 -274 16 C-272.47632813 16.54527344 -272.47632813 16.54527344 -270.921875 17.1015625 C-264.10511323 19.48925178 -257.29093006 21.1452979 -250.21191406 22.55517578 C-247.6776829 23.06481918 -245.14740263 23.59187251 -242.6171875 24.12109375 C-241.64740967 24.32387939 -240.67763184 24.52666504 -239.6784668 24.7355957 C-237.61732274 25.1672049 -235.55629012 25.59934654 -233.49536133 26.03198242 C-228.40559241 27.09664499 -223.31426826 28.13948405 -218.20703125 29.1171875 C-202.50845969 32.1719439 -187.32150577 36.49760743 -172.0324707 41.13964844 C-165.55213771 42.97820358 -159.57958232 43.21561753 -152.875 43.25 C-151.89273438 43.270625 -150.91046875 43.29125 -149.8984375 43.3125 C-142.80775072 43.3498194 -136.7296307 42.18556696 -130 40 C-128.17082031 39.41798828 -128.17082031 39.41798828 -126.3046875 38.82421875 C-125.17289063 38.44910156 -124.04109375 38.07398438 -122.875 37.6875 C-108.75903766 33.16385184 -94.11346953 29.51414775 -79.41796875 27.55078125 C-70.85792465 26.17139129 -62.42931191 24.01155856 -54 22 C-52.95126709 21.75660889 -52.95126709 21.75660889 -51.88134766 21.50830078 C-35.7696876 17.74738968 -19.90927339 12.03645228 -6 3 C-1.14482759 0 -1.14482759 0 0 0 Z " fill="#2349F4" transform="translate(341,109)"/>
<path d="M0 0 C2.91104132 3.5905904 4.99153479 7.51827595 7.1875 11.5625 C10.583996 17.73858748 14.24408559 23.38320596 18.56640625 28.9609375 C20 31 20 31 20 33 C20.66 33 21.32 33 22 33 C23.5078125 34.4609375 23.5078125 34.4609375 25.125 36.375 C25.66382813 37.00148437 26.20265625 37.62796875 26.7578125 38.2734375 C28 40 28 40 28 42 C28.721875 42.23074219 29.44375 42.46148437 30.1875 42.69921875 C33.53894452 44.24926184 35.44849612 46.15335455 38 48.8125 C38.825 49.66457031 39.65 50.51664063 40.5 51.39453125 C41.7375 52.68423828 41.7375 52.68423828 43 54 C44.66303692 55.67028853 46.32910502 57.3375724 48 59 C48.66 59.66 49.32 60.32 50 61 C50.66 61.103125 51.32 61.20625 52 61.3125 C52.99 61.6528125 52.99 61.6528125 54 62 C54.309375 62.804375 54.61875 63.60875 54.9375 64.4375 C55.74789838 67.2373709 55.74789838 67.2373709 58.5 68.0625 C59.7375 68.5265625 59.7375 68.5265625 61 69 C62.3125 71.125 62.3125 71.125 63 73 C60.04590299 71.62845496 57.55991624 70.01136276 55 68 C55.61875 69.155 56.2375 70.31 56.875 71.5 C61.40692424 79.95959191 61.33719825 88.49954469 61.3125 97.875 C61.32861328 99.09058594 61.34472656 100.30617188 61.36132812 101.55859375 C61.36528592 108.89635241 60.63138896 115.13919654 58 122 C57.7100415 122.75643799 57.42008301 123.51287598 57.12133789 124.29223633 C48.1664715 146.65913019 29.42707968 165.62189617 7.30078125 175.1640625 C-1.31085259 178.54432999 -1.31085259 178.54432999 -6 177 C-8.44876309 175.70775435 -10.77662656 174.39031238 -13.125 172.9375 C-13.78806152 172.53047852 -14.45112305 172.12345703 -15.13427734 171.70410156 C-37.58190856 157.77258448 -54.29816174 139.80720675 -62 114 C-63.51358865 106.43205674 -63.17496673 98.69020428 -63 91 C-62.98324219 90.17113281 -62.96648437 89.34226562 -62.94921875 88.48828125 C-62.50070196 81.55549321 -59.65849859 75.34704275 -57 69 C-57.66 69 -58.32 69 -59 69 C-59.2475 69.639375 -59.495 70.27875 -59.75 70.9375 C-61 73 -61 73 -63.125 73.75 C-63.74375 73.8325 -64.3625 73.915 -65 74 C-64.505 73.01 -64.505 73.01 -64 72 C-63.34 72 -62.68 72 -62 72 C-62 71.01 -62 70.02 -62 69 C-61.34 69 -60.68 69 -60 69 C-60 68.34 -60 67.68 -60 67 C-59.34 67 -58.68 67 -58 67 C-58 66.34 -58 65.68 -58 65 C-56.35146268 63.97038722 -54.68111286 62.97551901 -53 62 C-46.65131302 56.87487815 -40.90318775 50.99875725 -35.125 45.25 C-34.48256348 44.61223633 -33.84012695 43.97447266 -33.17822266 43.31738281 C-29.89120957 40.01913946 -26.86728008 36.67731884 -24 33 C-23.00379023 31.99622408 -22.0040295 30.9959542 -21 30 C-15.35010909 23.18729861 -10.18020223 15.98931297 -5.875 8.25 C-4.13469793 5.23347642 -2.2489009 2.65049034 0 0 Z " fill="#B82CFD" transform="translate(188,170)"/>
<path d="M0 0 C0.90185532 0.00202423 1.80371063 0.00404846 2.7328949 0.00613403 C3.67753098 0.00438171 4.62216705 0.00262939 5.59542847 0.00082397 C8.73436797 -0.00359624 11.87325164 -0.00065595 15.01219177 0.00271606 C17.18313101 0.00204307 19.35407018 0.00107309 21.52500916 -0.00018311 C26.08145361 -0.00166031 30.6378785 0.0004952 35.19432068 0.00515747 C41.04920763 0.01085477 46.90404875 0.00757588 52.75893402 0.00158501 C57.24374235 -0.00202 61.72853973 -0.0008823 66.21334839 0.0017128 C68.37282313 0.00238224 70.53229886 0.00155307 72.69177246 -0.00076675 C75.70420485 -0.00329229 78.7165619 0.00054592 81.72898865 0.00613403 C82.63084396 0.0041098 83.53269928 0.00208557 84.46188354 0 C90.61667946 0.02126625 90.61667946 0.02126625 91.73094177 1.13552856 C91.8304063 2.90412049 91.86174395 4.67664307 91.86375427 6.44802856 C91.86504333 7.52310669 91.8663324 8.59818481 91.86766052 9.70584106 C91.86379333 10.83763794 91.85992615 11.96943481 91.85594177 13.13552856 C91.85980896 14.26732544 91.86367615 15.39912231 91.86766052 16.56521606 C91.86637146 17.64029419 91.8650824 18.71537231 91.86375427 19.82302856 C91.86262634 20.81689575 91.86149841 21.81076294 91.8603363 22.83474731 C91.73094177 25.13552856 91.73094177 25.13552856 90.73094177 26.13552856 C88.73662448 26.22957998 86.73894634 26.25296106 84.74241638 26.24905396 C83.46116379 26.24897842 82.17991119 26.24890289 80.85983276 26.24882507 C79.45098329 26.24371766 78.04213422 26.23850165 76.63328552 26.23318481 C75.19981943 26.23132059 73.7663527 26.22989671 72.33288574 26.22889709 C68.5533422 26.22507229 64.77383687 26.21524233 60.99430847 26.20419312 C57.14024879 26.19397819 53.28618295 26.1893993 49.43211365 26.18435669 C41.86503891 26.17362002 34.29799568 26.15654406 26.73094177 26.13552856 C26.73617859 27.08919312 26.74141541 28.04285767 26.74681091 29.02542114 C26.76491442 32.56447409 26.77639338 36.10352295 26.78587341 39.64260864 C26.79090138 41.17419117 26.79772462 42.70576889 26.80638123 44.23733521 C26.81851407 46.43908879 26.82418545 48.64077889 26.82859802 50.84255981 C26.83375931 51.5270369 26.83892059 52.21151398 26.84423828 52.91673279 C26.84459538 55.94459098 26.69710796 58.23702999 25.73094177 61.13552856 C26.8363456 61.13219765 26.8363456 61.13219765 27.96408081 61.12879944 C34.89506946 61.10879654 41.82605382 61.09355444 48.75706387 61.08371639 C52.32071599 61.07848861 55.88434435 61.07139287 59.44798279 61.06008911 C63.54100274 61.04718681 67.63399757 61.0422995 71.72703552 61.03787231 C73.65512306 61.03013039 73.65512306 61.03013039 75.62216187 61.02223206 C76.8033107 61.02215652 77.98445953 61.02208099 79.20140076 61.02200317 C80.77026283 61.01867226 80.77026283 61.01867226 82.37081909 61.01527405 C84.73094177 61.13552856 84.73094177 61.13552856 85.73094177 62.13552856 C85.8304063 63.90412049 85.86174395 65.67664307 85.86375427 67.44802856 C85.86504333 68.52310669 85.8663324 69.59818481 85.86766052 70.70584106 C85.86379333 71.83763794 85.85992615 72.96943481 85.85594177 74.13552856 C85.85980896 75.26732544 85.86367615 76.39912231 85.86766052 77.56521606 C85.86637146 78.64029419 85.8650824 79.71537231 85.86375427 80.82302856 C85.86262634 81.81689575 85.86149841 82.81076294 85.8603363 83.83474731 C85.73094177 86.13552856 85.73094177 86.13552856 84.73094177 87.13552856 C82.92039152 87.2292891 81.10616976 87.25296966 79.29319763 87.24905396 C77.52704102 87.24887268 77.52704102 87.24887268 75.72520447 87.24868774 C74.47799622 87.24357178 73.23078796 87.23845581 71.94578552 87.23318481 C70.80661682 87.23217773 69.66744812 87.23117065 68.49375916 87.23013306 C64.21864319 87.22488194 59.94354152 87.21092084 55.66844177 87.19802856 C46.11906677 87.17740356 36.56969177 87.15677856 26.73094177 87.13552856 C26.73094177 106.60552856 26.73094177 126.07552856 26.73094177 146.13552856 C23.82868626 147.58665632 21.28182944 147.26538016 18.04344177 147.26834106 C17.38513367 147.26929779 16.72682556 147.27025452 16.04856873 147.27124023 C14.65655929 147.27192081 13.26454667 147.27007503 11.87254333 147.26589966 C9.73933294 147.26054961 7.6063331 147.26584869 5.47312927 147.27224731 C4.12156631 147.27158651 2.77000347 147.2703053 1.41844177 147.26834106 C-0.43200745 147.26664917 -0.43200745 147.26664917 -2.31983948 147.2649231 C-5.26905823 147.13552856 -5.26905823 147.13552856 -7.26905823 146.13552856 C-7.29238605 127.24714976 -7.31003683 108.35877386 -7.3208704 89.47038364 C-7.32603361 80.70080141 -7.33307677 71.93122811 -7.34449768 63.16165161 C-7.35444377 55.52089954 -7.36091148 47.88015393 -7.36314672 40.23939556 C-7.36445396 36.19114471 -7.36754061 32.14291237 -7.37478828 28.09466743 C-7.38154732 24.28871987 -7.38367543 20.48279854 -7.38216591 16.67684555 C-7.38244229 15.27595185 -7.38444811 13.87505731 -7.3882637 12.47416878 C-7.39319906 10.56963349 -7.39145622 8.6650843 -7.38931274 6.76054382 C-7.39023454 5.69218575 -7.39115633 4.62382769 -7.39210606 3.52309513 C-7.14520313 -1.26770187 -4.08411253 0.01411156 0 0 Z " fill="#466BF3" transform="translate(402.26905822753906,115.86447143554688)"/>
<path d="M0 0 C4.50782077 3.08819363 8.58145796 6.47549148 12.2421875 10.54296875 C12.92667969 11.22166016 12.92667969 11.22166016 13.625 11.9140625 C18.99771269 17.55400435 21.97192706 24.56705816 25.2421875 31.54296875 C25.9021875 31.32640625 26.5621875 31.10984375 27.2421875 30.88671875 C35.05699165 28.68880508 42.4022082 28.24037081 50.4921875 28.23046875 C52.01779297 28.22273438 52.01779297 28.22273438 53.57421875 28.21484375 C59.75393871 28.27124276 65.26037591 28.98546387 71.2421875 30.54296875 C71.69207031 29.6715625 72.14195312 28.80015625 72.60546875 27.90234375 C79.609118 14.76005997 88.36073312 2.55603723 103.2734375 -2.08984375 C105.48102778 -2.50157686 107.55923027 -2.62553415 109.8046875 -2.64453125 C110.56910156 -2.65871094 111.33351562 -2.67289063 112.12109375 -2.6875 C114.2421875 -2.45703125 114.2421875 -2.45703125 117.2421875 -0.45703125 C118.2421875 2.79296875 118.2421875 2.79296875 118.2421875 6.54296875 C114.73157629 11.74765398 111.14303539 13.97517982 105.4921875 16.48046875 C98.12807793 19.94652305 91.80728247 23.81942511 86.1328125 29.74609375 C84.2421875 31.54296875 84.2421875 31.54296875 82.2421875 31.54296875 C81.5821875 33.19296875 80.9221875 34.84296875 80.2421875 36.54296875 C80.89574219 37.25259766 80.89574219 37.25259766 81.5625 37.9765625 C91.95104409 49.51189392 97.65451476 60.04300584 97.4609375 75.84375 C97.04044873 81.03228112 96.42090322 87.37460322 92.59765625 91.1796875 C89.4703318 92.98969784 86.19771308 94.2144717 82.8046875 95.41796875 C76.90154341 97.50922585 76.90154341 97.50922585 71.1796875 100.04296875 C59.31769726 105.71609452 43.54670603 105.95753052 31.046875 102.17578125 C27.29979825 100.84129602 23.7144312 99.24523464 20.15234375 97.47900391 C18.34835124 96.59499224 16.49877784 95.80580967 14.6484375 95.0234375 C8.05702821 92.11969773 4.07391228 89.28448611 1.2421875 82.54296875 C-1.98370732 72.86528428 0.04213819 61.56529689 4.2421875 52.54296875 C7.45020263 46.70366031 11.37620652 42.06137966 16.2421875 37.54296875 C13.21682462 27.80027473 0.79059315 21.22921703 -7.7578125 16.54296875 C-9.57790069 15.80126383 -11.41112213 15.09071082 -13.2578125 14.41796875 C-16.48267268 13.2220618 -17.5752311 12.76427953 -19.8203125 10.04296875 C-20.1296875 9.21796875 -20.4390625 8.39296875 -20.7578125 7.54296875 C-21.0259375 6.86234375 -21.2940625 6.18171875 -21.5703125 5.48046875 C-21.83110884 2.78557327 -21.40835576 1.69585126 -19.7578125 -0.45703125 C-13.64276764 -3.74974771 -6.03512166 -3.18852745 0 0 Z " fill="#0089F0" transform="translate(138.7578125,46.45703125)"/>
<path d="M0 0 C3.72993339 0.73787813 6.05100085 2.43155115 9.10546875 4.67578125 C16.29619669 9.70187769 24.77710218 12.18123372 33 15 C34.01578125 15.36351563 35.0315625 15.72703125 36.078125 16.1015625 C42.89488677 18.48925178 49.70906994 20.1452979 56.78808594 21.55517578 C61.32278829 22.46712144 65.84766311 23.42729149 70.375 24.375 C76.62657732 25.68336688 82.87935268 26.98084594 89.14453125 28.22265625 C102.3099642 30.85595461 115.15087067 34.10510767 128 38 C128 38.66 128 39.32 128 40 C128.66 40 129.32 40 130 40 C130 40.66 130 41.32 130 42 C130.58007812 42.04898438 131.16015625 42.09796875 131.7578125 42.1484375 C136.43923092 42.59649405 140.57485459 43.298021 145 45 C144.690625 45.598125 144.38125 46.19625 144.0625 46.8125 C142.89790296 49.08956772 142.89790296 49.08956772 142 52 C140.68352881 52.69937532 139.34977849 53.36729133 138 54 C137.67 54.66 137.34 55.32 137 56 C135.00390625 57.2890625 135.00390625 57.2890625 132.5625 58.625 C131.75941406 59.07101563 130.95632812 59.51703125 130.12890625 59.9765625 C128 61 128 61 126 61 C126 61.66 126 62.32 126 63 C124.515 63.495 124.515 63.495 123 64 C121.31267723 65.98260426 119.64633943 67.9832342 118 70 C115 72 115 72 112 72 C112 72.66 112 73.32 112 74 C107.69767442 78.76744186 107.69767442 78.76744186 104 80 C104 80.66 104 81.32 104 82 C101.21024957 83.52110826 98.74341246 84.3630556 95.625 84.9375 C92.66950307 85.54499203 90.66789072 86.16944351 87.9375 87.5625 C81.3157395 90.80293599 73.29494473 90.18254966 66.0625 90.1875 C65.12470703 90.19974609 64.18691406 90.21199219 63.22070312 90.22460938 C50.71087093 90.25068964 40.71509331 87.04964874 31 79 C30.22011719 78.71382813 29.44023438 78.42765625 28.63671875 78.1328125 C19.97760445 74.41260043 14.48676451 64.85478196 10 57 C9.43345703 56.03513672 9.43345703 56.03513672 8.85546875 55.05078125 C2.06007977 42.57000708 -0.12928173 29.30196106 -0.625 15.3125 C-0.6765625 14.06404297 -0.728125 12.81558594 -0.78125 11.52929688 C-0.82507812 10.34013672 -0.86890625 9.15097656 -0.9140625 7.92578125 C-0.9548291 6.83692627 -0.9955957 5.74807129 -1.03759766 4.6262207 C-1 2 -1 2 0 0 Z " fill="#00A5F8" transform="translate(34,110)"/>
<path d="M0 0 C0.95519531 0.53560547 0.95519531 0.53560547 1.9296875 1.08203125 C3.5 2.0625 3.5 2.0625 6 4 C6.79019531 4.5671875 7.58039063 5.134375 8.39453125 5.71875 C11.403279 8.35309586 13.13890593 11.00996833 15.1875 14.4375 C15.86167969 15.54996094 16.53585937 16.66242188 17.23046875 17.80859375 C19.89931404 22.62194166 21.25785817 26.74433471 22.0625 32.1875 C22.5998156 36.23026538 22.5998156 36.23026538 24 40 C24.0716735 42.55157655 24.09308442 45.07472971 24.0625 47.625 C24.05798828 48.33140625 24.05347656 49.0378125 24.04882812 49.765625 C24.03703875 51.51045275 24.01910324 53.255237 24 55 C21.57292764 56.21353618 20.05608471 56.11429305 17.34521484 56.09765625 C16.37595062 56.09435303 15.4066864 56.0910498 14.40805054 56.08764648 C13.35300323 56.07934814 12.29795593 56.0710498 11.2109375 56.0625 C9.57410507 56.05682007 9.57410507 56.05682007 7.90420532 56.05102539 C3.23166265 56.03471765 -1.44079279 56.00696202 -6.11328125 55.97949219 C-19.11883859 55.90953024 -32.03302967 55.89747529 -45 57 C-44.78907715 57.88204102 -44.5781543 58.76408203 -44.36083984 59.67285156 C-43.8577474 61.77669271 -43.35465495 63.88053385 -42.8515625 65.984375 C-41.20235055 71.82470355 -39.36929819 73.96077461 -34 77 C-28.78130826 78.96931764 -23.52497008 80.0589526 -18 79 C-13.59291469 76.91500236 -9.91492599 74.69986249 -7.5703125 70.34375 C-6 68 -6 68 -3.609375 67.29296875 C-2.66578125 67.25816406 -1.7221875 67.22335938 -0.75 67.1875 C0.30316406 67.14238281 1.35632813 67.09726563 2.44140625 67.05078125 C3.61574219 67.03402344 4.79007813 67.01726562 6 67 C6.66370605 66.98630371 7.32741211 66.97260742 8.01123047 66.95849609 C12.34309656 66.87403641 16.67046222 66.80554256 21 67 C21.33 67.33 21.66 67.66 22 68 C21.83727937 76.94963475 17.06351646 84.5689977 11 91 C-2.91567172 102.59043094 -18.57071038 103.21458464 -36 102 C-49.58304479 100.14614612 -60.10232665 91.69450295 -68.1875 81.0625 C-71.72639201 75.62169009 -72.87984881 69.53992965 -74.23828125 63.28125 C-74.65631732 60.16738505 -74.65631732 60.16738505 -76 59 C-76.12794998 56.1136866 -76.18522688 53.26186556 -76.1875 50.375 C-76.20586914 49.18197266 -76.20586914 49.18197266 -76.22460938 47.96484375 C-76.23696723 42.94755511 -75.57294509 38.81309415 -74 34 C-73.69357706 32.52381964 -73.39962692 31.04492488 -73.125 29.5625 C-70.72060642 18.71519768 -63.82985342 9.57542276 -55 3 C-53.700625 1.9790625 -53.700625 1.9790625 -52.375 0.9375 C-37.12911682 -7.81476627 -15.50597989 -8.70030061 0 0 Z M-41 23 C-43.3196102 27.98906325 -45 32.46972129 -45 38 C-31.8 38 -18.6 38 -5 38 C-3.69110684 35.38221368 -4.22886354 34.55279095 -5.125 31.8125 C-7.34141011 25.63040544 -9.95488853 20.84735663 -15.8125 17.5625 C-24.34037365 13.850555 -34.7343458 16.038162 -41 23 Z " fill="#5E56EE" transform="translate(688,162)"/>
<path d="M0 0 C2.91104132 3.5905904 4.99153479 7.51827595 7.1875 11.5625 C10.583996 17.73858748 14.24408559 23.38320596 18.56640625 28.9609375 C20 31 20 31 20 33 C20.66 33 21.32 33 22 33 C23.5078125 34.4609375 23.5078125 34.4609375 25.125 36.375 C25.66382813 37.00148437 26.20265625 37.62796875 26.7578125 38.2734375 C28 40 28 40 28 42 C28.721875 42.23074219 29.44375 42.46148437 30.1875 42.69921875 C33.53894452 44.24926184 35.44849612 46.15335455 38 48.8125 C38.825 49.66457031 39.65 50.51664063 40.5 51.39453125 C41.7375 52.68423828 41.7375 52.68423828 43 54 C44.66303692 55.67028853 46.32910502 57.3375724 48 59 C48.66 59.66 49.32 60.32 50 61 C50.66 61.103125 51.32 61.20625 52 61.3125 C52.99 61.6528125 52.99 61.6528125 54 62 C54.309375 62.804375 54.61875 63.60875 54.9375 64.4375 C55.74789838 67.2373709 55.74789838 67.2373709 58.5 68.0625 C59.7375 68.5265625 59.7375 68.5265625 61 69 C62.3125 71.125 62.3125 71.125 63 73 C60.04590299 71.62845496 57.55991624 70.01136276 55 68 C55.61875 69.155 56.2375 70.31 56.875 71.5 C61.40692424 79.95959191 61.33719825 88.49954469 61.3125 97.875 C61.32861328 99.09058594 61.34472656 100.30617188 61.36132812 101.55859375 C61.36528592 108.89635241 60.63138896 115.13919654 58 122 C57.7100415 122.75643799 57.42008301 123.51287598 57.12133789 124.29223633 C48.1664715 146.65913019 29.42707968 165.62189617 7.30078125 175.1640625 C-1.31085259 178.54432999 -1.31085259 178.54432999 -6 177 C-8.44876309 175.70775435 -10.77662656 174.39031238 -13.125 172.9375 C-13.78806152 172.53047852 -14.45112305 172.12345703 -15.13427734 171.70410156 C-37.58190856 157.77258448 -54.29816174 139.80720675 -62 114 C-63.51358865 106.43205674 -63.17496673 98.69020428 -63 91 C-62.98324219 90.17113281 -62.96648437 89.34226562 -62.94921875 88.48828125 C-62.50070196 81.55549321 -59.65849859 75.34704275 -57 69 C-57.66 69 -58.32 69 -59 69 C-59.2475 69.639375 -59.495 70.27875 -59.75 70.9375 C-61 73 -61 73 -63.125 73.75 C-63.74375 73.8325 -64.3625 73.915 -65 74 C-64.505 73.01 -64.505 73.01 -64 72 C-63.34 72 -62.68 72 -62 72 C-62 71.01 -62 70.02 -62 69 C-61.34 69 -60.68 69 -60 69 C-60 68.34 -60 67.68 -60 67 C-59.34 67 -58.68 67 -58 67 C-58 66.34 -58 65.68 -58 65 C-56.35146268 63.97038722 -54.68111286 62.97551901 -53 62 C-46.65131302 56.87487815 -40.90318775 50.99875725 -35.125 45.25 C-34.48256348 44.61223633 -33.84012695 43.97447266 -33.17822266 43.31738281 C-29.89120957 40.01913946 -26.86728008 36.67731884 -24 33 C-23.00379023 31.99622408 -22.0040295 30.9959542 -21 30 C-15.35010909 23.18729861 -10.18020223 15.98931297 -5.875 8.25 C-4.13469793 5.23347642 -2.2489009 2.65049034 0 0 Z M-46.375 79.0625 C-49.33316549 81.71624745 -49.33316549 81.71624745 -49 85 C-49.66 85 -50.32 85 -51 85 C-55.78344142 94.56688284 -52.55919701 112.33779469 -49.41162109 122.23388672 C-46.84248029 129.31426459 -42.70249663 135.16214032 -38 141 C-36.76443359 142.53914063 -36.76443359 142.53914063 -35.50390625 144.109375 C-27.71772749 153.09809931 -16.72271102 160.16845235 -4.625 161.203125 C9.23500705 161.45062513 20.4582687 157.37156461 30.625 147.8125 C46.38268492 130.91844357 52.19360717 113.88622166 51.97265625 91.19140625 C51.60310809 85.99069187 50.24160282 81.16071582 47 77 C44.15587499 75.3464126 44.15587499 75.3464126 42.0546875 74.7109375 C39.56077564 73.84802503 37.33496193 72.66530673 35 71.4375 C12.40886841 60.12499933 -27.67250301 60.50843553 -46.375 79.0625 Z " fill="#5218CA" transform="translate(188,170)"/>
<path d="M0 0 C1.73540039 -0.00483398 1.73540039 -0.00483398 3.50585938 -0.00976562 C12.76998367 0.04937852 12.76998367 0.04937852 16.5625 2.3125 C16.59137814 5.79164941 16.60925687 9.27076831 16.625 12.75 C16.63337891 13.74322266 16.64175781 14.73644531 16.65039062 15.75976562 C16.65361328 16.70400391 16.65683594 17.64824219 16.66015625 18.62109375 C16.66539307 19.49564209 16.67062988 20.37019043 16.67602539 21.27124023 C16.5625 23.3125 16.5625 23.3125 15.5625 24.3125 C11.85023277 24.30491621 8.14898658 24.2344955 4.43945312 24.09765625 C-0.58367591 24.00729743 -4.19130864 24.29907387 -8.4375 27.3125 C-10.65063588 31.05930022 -10.80252722 34.83544917 -11.0625 39.125 C-11.248125 42.1878125 -11.248125 42.1878125 -11.4375 45.3125 C-3.8475 45.3125 3.7425 45.3125 11.5625 45.3125 C11.5625 52.5725 11.5625 59.8325 11.5625 67.3125 C3.9725 67.3125 -3.6175 67.3125 -11.4375 67.3125 C-11.4375 94.3725 -11.4375 121.4325 -11.4375 149.3125 C-20.97264126 150.90169021 -30.77995714 149.73239317 -40.4375 149.3125 C-40.4375 122.2525 -40.4375 95.1925 -40.4375 67.3125 C-44.7275 67.3125 -49.0175 67.3125 -53.4375 67.3125 C-55.76423396 64.98576604 -54.91612517 59.45525376 -55.0625 56.3125 C-55.1140625 55.37148437 -55.165625 54.43046875 -55.21875 53.4609375 C-55.26257813 52.56632812 -55.30640625 51.67171875 -55.3515625 50.75 C-55.4127124 49.51056641 -55.4127124 49.51056641 -55.47509766 48.24609375 C-55.4375 46.3125 -55.4375 46.3125 -54.4375 45.3125 C-52.08436445 45.23978259 -49.72916332 45.22879132 -47.375 45.25 C-46.08464844 45.25902344 -44.79429687 45.26804688 -43.46484375 45.27734375 C-42.46582031 45.28894531 -41.46679688 45.30054688 -40.4375 45.3125 C-40.48970703 43.33830078 -40.48970703 43.33830078 -40.54296875 41.32421875 C-40.93382001 20.36382309 -40.93382001 20.36382309 -35.8125 11.5 C-25.19080507 1.71685993 -14.13695169 -0.20161083 0 0 Z " fill="#4764E8" transform="translate(765.4375,112.6875)"/>
<path d="M0 0 C0.99 0 1.98 0 3 0 C3 3.96 3 7.92 3 12 C1.35 12.33 -0.3 12.66 -2 13 C-1.9175 14.093125 -1.835 15.18625 -1.75 16.3125 C-1.75 24.2220836 -4.99465288 31.0561503 -10 37 C-10.6108742 38.40501065 -11.19116217 39.8234929 -11.75 41.25 C-14.26054187 47.17408497 -18.46571805 53.51387227 -24.5546875 56.07421875 C-25.36164063 56.37972656 -26.16859375 56.68523437 -27 57 C-28.68874788 58.34017656 -28.68874788 58.34017656 -30.1875 59.875 C-33.69445363 63.02206974 -37.25289286 64.53243859 -41.65234375 66.125 C-44.18722608 67.00831625 -44.18722608 67.00831625 -47.125 68.6875 C-54.8815745 72.22854488 -64.63350902 71.35906841 -73 71.4375 C-73.68820831 71.44467041 -74.37641663 71.45184082 -75.08547974 71.45922852 C-86.00619029 71.51911428 -95.29224257 70.28655834 -105 65 C-105 64.34 -105 63.68 -105 63 C-105.86625 62.896875 -106.7325 62.79375 -107.625 62.6875 C-111.16683123 61.96601586 -113.84312042 60.72876739 -117 59 C-117 58.34 -117 57.68 -117 57 C-117.87527344 56.7525 -118.75054687 56.505 -119.65234375 56.25 C-123.19092222 54.92871049 -125.5851071 53.3039854 -128.5625 51 C-131.95849254 48.37954618 -134.93679895 46.41073165 -139 45 C-138.42655063 42.13275314 -138.1385485 41.1385485 -136 39 C-133.9609375 38.32421875 -133.9609375 38.32421875 -131.375 37.6875 C-126.81146032 36.51132998 -122.35316887 35.15513518 -117.875 33.6875 C-103.75666218 29.16781985 -89.1148225 25.51432851 -74.41796875 23.55078125 C-65.85792465 22.17139129 -57.42931191 20.01155856 -49 18 C-47.95126709 17.75660889 -47.95126709 17.75660889 -46.88134766 17.50830078 C-34.71500557 14.668337 -20.4627984 10.97519894 -10 4 C-8.845 3.855625 -7.69 3.71125 -6.5 3.5625 C-2.85968463 2.97744932 -2.27892748 2.6207666 0 0 Z " fill="#0093F9" transform="translate(336,113)"/>
<path d="M0 0 C1.25554688 -0.00128906 2.51109375 -0.00257812 3.8046875 -0.00390625 C4.46178711 -0.00181152 5.11888672 0.0002832 5.79589844 0.00244141 C7.80411335 0.00779016 9.81210459 0.00249559 11.8203125 -0.00390625 C13.07585938 -0.00261719 14.33140625 -0.00132813 15.625 0 C16.78644531 0.00112793 17.94789063 0.00225586 19.14453125 0.00341797 C21.8125 0.1328125 21.8125 0.1328125 22.8125 1.1328125 C22.89679109 3.00612281 22.90935177 4.88267857 22.89479065 6.75782776 C22.88775116 7.97925476 22.88071167 9.20068176 22.87345886 10.4591217 C22.86047469 11.82504361 22.84739466 13.1909646 22.83422852 14.55688477 C22.82409162 15.98558253 22.81439731 17.41428349 22.80511475 18.84298706 C22.77857468 22.73334349 22.74580742 26.62362599 22.71196485 30.51392484 C22.67768007 34.57516982 22.64906294 38.63645453 22.61985779 42.69773865 C22.56364779 50.39362972 22.50230285 58.08947105 22.43913645 65.78530782 C22.36749039 74.54450633 22.30153316 83.30374474 22.23606598 92.06299126 C22.10123038 110.08631861 21.95845995 128.10957158 21.8125 146.1328125 C12.2425 146.1328125 2.6725 146.1328125 -7.1875 146.1328125 C-7.21004604 127.24443059 -7.2284786 108.35605952 -7.23931217 89.46766758 C-7.24447538 80.69808535 -7.25151854 71.92851205 -7.26293945 63.15893555 C-7.27288554 55.51818347 -7.27935325 47.87743786 -7.28158849 40.23667949 C-7.28289573 36.18842865 -7.28598238 32.14019631 -7.29323006 28.09195137 C-7.29998909 24.28600381 -7.3021172 20.48008248 -7.30060768 16.67412949 C-7.30088406 15.27323578 -7.30288988 13.87234125 -7.30670547 12.47145271 C-7.31164083 10.56691742 -7.309898 8.66236824 -7.30775452 6.75782776 C-7.30867631 5.68946969 -7.3095981 4.62111162 -7.31054783 3.52037907 C-7.06737892 -1.19796466 -4.06632938 0.00394899 0 0 Z " fill="#4D5EE5" transform="translate(797.1875,115.8671875)"/>
<path d="M0 0 C1.101173 3.30351899 1.03109831 5.51387172 0.87890625 8.98046875 C0.83056641 10.14384766 0.78222656 11.30722656 0.73242188 12.50585938 C0.67634766 13.72080078 0.62027344 14.93574219 0.5625 16.1875 C0.51029297 17.41404297 0.45808594 18.64058594 0.40429688 19.90429688 C0.27451599 22.93645018 0.13954569 25.96828294 0 29 C-5.25009961 30.1417638 -10.16997661 29.98558279 -15.52734375 29.83984375 C-19.09492288 30.00437777 -21.73298261 30.57430454 -25 32 C-26.38858872 34.42885788 -26.38858872 34.42885788 -27 37 C-27.495 37.99 -27.495 37.99 -28 39 C-28.66 39 -29.32 39 -30 39 C-30.33 61.11 -30.66 83.22 -31 106 C-57 107 -57 107 -61 106 C-61.0231207 92.58774207 -61.04091369 79.17548883 -61.05181217 65.76321507 C-61.0570416 59.53606528 -61.06414033 53.30892908 -61.07543945 47.08178711 C-61.08626621 41.07773135 -61.09227638 35.07368871 -61.09487724 29.06962395 C-61.09673188 26.7733839 -61.10035321 24.47714461 -61.10573006 22.18091011 C-61.11293768 18.97679186 -61.11399106 15.7727285 -61.11352539 12.56860352 C-61.11712067 11.60907272 -61.12071594 10.64954193 -61.12442017 9.66093445 C-61.1230455 8.79290192 -61.12167084 7.92486938 -61.12025452 7.03053284 C-61.12117631 6.27189721 -61.1220981 5.51326159 -61.12304783 4.731637 C-61 3 -61 3 -60 2 C-58.00035018 1.91241997 -55.9976389 1.89303424 -53.99609375 1.90234375 C-52.78115234 1.90556641 -51.56621094 1.90878906 -50.31445312 1.91210938 C-49.03505859 1.92048828 -47.75566406 1.92886719 -46.4375 1.9375 C-45.15423828 1.94201172 -43.87097656 1.94652344 -42.54882812 1.95117188 C-39.3658658 1.96300445 -36.18292726 1.98094056 -33 2 C-33 6.95 -33 11.9 -33 17 C-31.68 15.02 -30.36 13.04 -29 11 C-21.07025967 2.69006664 -11.3001904 -0.48085917 0 0 Z " fill="#5558E4" transform="translate(615,156)"/>
<path d="M0 0 C0.66 0 1.32 0 2 0 C2 0.66 2 1.32 2 2 C2.99 2.33 3.98 2.66 5 3 C4.5359375 3.8971875 4.5359375 3.8971875 4.0625 4.8125 C2.89790296 7.08956772 2.89790296 7.08956772 2 10 C2.83002923 12.37902743 3.71399083 14.58912656 4.75 16.875 C5.14832031 17.79345703 5.14832031 17.79345703 5.5546875 18.73046875 C6.79328181 21.53835002 8.11603991 24.19215784 9.703125 26.8203125 C11 29 11 29 11 31 C11.66 31 12.32 31 13 31 C13.495 33.475 13.495 33.475 14 36 C9.97943781 32.49584029 7.75597864 28.37014303 5.25 23.75 C4.83878906 23.00492188 4.42757812 22.25984375 4.00390625 21.4921875 C2.99650456 19.66480769 1.99741214 17.83285137 1 16 C-1.39214525 19.03867099 -3.29770331 22.19138998 -5.1875 25.5625 C-8.70130328 31.64063206 -12.4232214 37.6551643 -17 43 C-17.66 43 -18.32 43 -19 43 C-19.226875 43.721875 -19.45375 44.44375 -19.6875 45.1875 C-21.27270639 48.58437084 -23.3061653 50.39578454 -26 53 C-27.78167266 54.79254876 -29.5629003 56.5855399 -31.34375 58.37890625 C-32.87184217 59.9143709 -34.40041363 61.44935661 -35.92919922 62.98413086 C-36.97729529 64.03727682 -38.02449504 65.09131556 -39.07080078 66.14624023 C-40.59689325 67.68452806 -42.12625186 69.21950418 -43.65625 70.75390625 C-44.56181641 71.66470947 -45.46738281 72.5755127 -46.40039062 73.51391602 C-53.18265737 80 -53.18265737 80 -57 80 C-57 80.66 -57 81.32 -57 82 C-57.66 82 -58.32 82 -59 82 C-59 82.66 -59 83.32 -59 84 C-59.66 84 -60.32 84 -61 84 C-61 84.99 -61 85.98 -61 87 C-65.54999489 92.76332687 -72.78523548 96.65607327 -80 98 C-85.87198869 98.42294056 -91.55394664 98.4088313 -97 96 C-101.79658246 91.70190764 -104.61788622 87.24796712 -105.375 80.8125 C-104.52378375 72.15846811 -101.32671161 66.55964916 -94.8046875 60.88671875 C-87.6098885 56.04676343 -79.59877175 52.92220244 -71.5 49.9375 C-52.17935616 42.73149916 -35.77789519 34.45305761 -19.875 21.125 C-19.30587891 20.64836914 -18.73675781 20.17173828 -18.15039062 19.68066406 C-15.15056301 17.19297189 -15.15056301 17.19297189 -13 14 C-12.01 13.67 -11.02 13.34 -10 13 C-8.232372 10.84274898 -6.56984507 8.69236968 -4.9375 6.4375 C-3.33987765 4.23587035 -1.71540509 2.1155682 0 0 Z " fill="#0077EF" transform="translate(187,155)"/>
<path d="M0 0 C9.57 0 19.14 0 29 0 C29 34.32 29 68.64 29 104 C21.11126961 105.12696148 21.11126961 105.12696148 17.5546875 105.1328125 C16.40419922 105.13474609 16.40419922 105.13474609 15.23046875 105.13671875 C14.06451172 105.13091797 14.06451172 105.13091797 12.875 105.125 C12.08996094 105.12886719 11.30492187 105.13273437 10.49609375 105.13671875 C9.73167969 105.13542969 8.96726562 105.13414062 8.1796875 105.1328125 C7.15464111 105.13112061 7.15464111 105.13112061 6.10888672 105.12939453 C3.67537031 104.98008176 1.38477557 104.49535698 -1 104 C-1.0231207 90.58774207 -1.04091369 77.17548883 -1.05181217 63.76321507 C-1.0570416 57.53606528 -1.06414033 51.30892908 -1.07543945 45.08178711 C-1.08626621 39.07773135 -1.09227638 33.07368871 -1.09487724 27.06962395 C-1.09673188 24.7733839 -1.10035321 22.47714461 -1.10573006 20.18091011 C-1.11293768 16.97679186 -1.11399106 13.7727285 -1.11352539 10.56860352 C-1.11712067 9.60907272 -1.12071594 8.64954193 -1.12442017 7.66093445 C-1.1230455 6.79290192 -1.12167084 5.92486938 -1.12025452 5.03053284 C-1.12117631 4.27189721 -1.1220981 3.51326159 -1.12304783 2.731637 C-1 1 -1 1 0 0 Z " fill="#5954DF" transform="translate(508,158)"/>
<path d="M0 0 C9.57 0 19.14 0 29 0 C30 1 30 1 30.10743046 2.731637 C30.09913432 3.49027263 30.09083818 4.24890825 30.08229065 5.03053284 C30.07525116 5.89856537 30.06821167 6.7665979 30.06095886 7.66093445 C30.04801285 8.62046524 30.03506683 9.57999603 30.02172852 10.56860352 C30.01212097 11.57336731 30.00251343 12.5781311 29.99261475 13.61334229 C29.95949486 16.95193203 29.9192123 20.29039615 29.87890625 23.62890625 C29.85461781 25.93675791 29.83077364 28.24461429 29.80735779 30.55247498 C29.74438979 36.64022168 29.67535939 42.72788539 29.60510254 48.81555176 C29.53453363 55.02217819 29.4696483 61.2288637 29.40429688 67.43554688 C29.27512074 79.62376282 29.1395455 91.81189868 29 104 C22 105 22 105 0 104 C0 69.68 0 35.36 0 0 Z " fill="#5D54E7" transform="translate(837,158)"/>
<path d="M0 0 C0.70867065 29.01552031 -3.44832896 52.81915918 -23.78125 74.7109375 C-29.63546467 80.75067306 -35.30105961 84.56885491 -43 88 C-43.79937988 88.35803711 -44.59875977 88.71607422 -45.42236328 89.08496094 C-53.02898009 92.17353885 -59.96548565 92.69856719 -68.125 92.625 C-69.40528076 92.615896 -70.68556152 92.60679199 -72.00463867 92.59741211 C-82.37659341 92.34607021 -90.79294183 90.72235261 -100 86 C-100.68336426 85.65727051 -101.36672852 85.31454102 -102.07080078 84.96142578 C-117.32362275 77.17521664 -131.16610214 66.96857838 -142.625 54.1875 C-144.07561063 52.67319006 -144.07561063 52.67319006 -147 53 C-149.6875 50.625 -149.6875 50.625 -152 48 C-152 47.34 -152 46.68 -152 46 C-156.54109672 50.26587874 -160.24735246 55.03612328 -164 60 C-164.33 59.34 -164.66 58.68 -165 58 C-164.0625 55.875 -164.0625 55.875 -163 54 C-163.4846875 54.49628906 -163.969375 54.99257812 -164.46875 55.50390625 C-183.917165 75.21412684 -208.40115645 92.87074995 -237.13793945 93.19091797 C-252.51885984 93.16602687 -265.51215116 90.71277132 -278 81 C-278 80.34 -278 79.68 -278 79 C-275.27251785 80.3094328 -272.7696566 81.76640544 -270.25 83.4375 C-261.00290514 89.26420103 -252.00270146 90.18023466 -241.25 90.1875 C-240.3115625 90.19974609 -239.373125 90.21199219 -238.40625 90.22460938 C-230.76343456 90.24044394 -223.57214797 89.53092056 -216.5 86.5 C-212.09268359 84.61115011 -207.70786318 83.80516775 -203 83 C-203 82.34 -203 81.68 -203 81 C-198.69767442 76.23255814 -198.69767442 76.23255814 -195 75 C-195 74.34 -195 73.68 -195 73 C-193.9275 72.443125 -192.855 71.88625 -191.75 71.3125 C-188.32172506 69.38409535 -186.41640013 67.10680017 -184 64 C-183.01 64 -182.02 64 -181 64 C-181 63.34 -181 62.68 -181 62 C-179.35546875 60.7109375 -179.35546875 60.7109375 -177.1875 59.375 C-176.47980469 58.92898437 -175.77210938 58.48296875 -175.04296875 58.0234375 C-173 57 -173 57 -170 57 C-169.67 56.01 -169.34 55.02 -169 54 C-166.9375 53.3125 -166.9375 53.3125 -165 53 C-164.814375 52.1028125 -164.814375 52.1028125 -164.625 51.1875 C-164 49 -164 49 -162 46 C-166.98283716 44.85948394 -171.94468132 43.77774134 -177 43 C-177 42.34 -177 41.68 -177 41 C-177.66 40.67 -178.32 40.34 -179 40 C-169 42 -169 42 -166.6640625 42.51367188 C-163.97963558 43.00371755 -161.42429408 43.20485346 -158.69921875 43.31640625 C-157.23452148 43.37924805 -157.23452148 43.37924805 -155.74023438 43.44335938 C-154.73283203 43.48267578 -153.72542969 43.52199219 -152.6875 43.5625 C-151.14739258 43.62727539 -151.14739258 43.62727539 -149.57617188 43.69335938 C-147.05090431 43.79906825 -144.52554438 43.90116468 -142 44 C-142.66 45.65 -143.32 47.3 -144 49 C-143.28714844 49.08507812 -142.57429687 49.17015625 -141.83984375 49.2578125 C-138.38422471 50.16093164 -136.3793251 51.69345886 -133.5625 53.875 C-129.84783011 56.73894179 -126.25245653 59.00842242 -122 61 C-122 61.66 -122 62.32 -122 63 C-121.13375 63.28875 -120.2675 63.5775 -119.375 63.875 C-114.6875 65.4375 -114.6875 65.4375 -110 67 C-110 67.66 -110 68.32 -110 69 C-108.845 69.268125 -107.69 69.53625 -106.5 69.8125 C-103.65281739 70.47345311 -101.35890418 71.30164768 -98.6875 72.55859375 C-92.86723729 74.773738 -86.72464969 74.37354575 -80.59130859 74.28125 C-78.50469937 74.25007022 -76.41885071 74.24026304 -74.33203125 74.234375 C-61.19009891 74.29238701 -61.19009891 74.29238701 -49 70 C-44.71748763 68.19152932 -40.41051949 66.47017316 -36 65 C-35.67 64.01 -35.34 63.02 -35 62 C-32.94585126 60.16593863 -31.33660992 59.10007322 -28.6875 58.3125 C-22.56004488 55.32002192 -19.08406848 49.79562541 -16.75 43.5625 C-16.47671875 42.71816406 -16.2034375 41.87382812 -15.921875 41.00390625 C-15.61765625 40.34261719 -15.3134375 39.68132812 -15 39 C-13.515 38.505 -13.515 38.505 -12 38 C-11.00938734 36.03975228 -11.00938734 36.03975228 -10.375 33.6875 C-10.13523437 32.90761719 -9.89546875 32.12773437 -9.6484375 31.32421875 C-9.43445313 30.55722656 -9.22046875 29.79023438 -9 29 C-8.70802734 27.99259766 -8.70802734 27.99259766 -8.41015625 26.96484375 C-7.96945127 24.85365701 -7.96846534 23.02553168 -8.0625 20.875 C-8 17 -8 17 -6 15 C-5.01 15 -4.02 15 -3 15 C-2.67 11.37 -2.34 7.74 -2 4 C-3.0828125 4.7115625 -3.0828125 4.7115625 -4.1875 5.4375 C-6.89475226 6.94152903 -8.96194275 7.56599182 -12 8 C-4.4 0 -4.4 0 0 0 Z " fill="#003EEB" transform="translate(341,109)"/>
<path d="M0 0 C3.72993339 0.73787813 6.05100085 2.43155115 9.10546875 4.67578125 C17.94597464 10.85502145 28.87478008 13.64544386 39 17 C39 17.33 39 17.66 39 18 C32.22949121 17.50170321 26.73157049 15.55965066 20.5 12.9375 C19.5821875 12.56044922 18.664375 12.18339844 17.71875 11.79492188 C15.4754329 10.87189036 13.23618189 9.94015476 11 9 C8.8371773 20.93948467 9.39923728 32.25244021 15.73046875 42.9140625 C17.71097615 45.72076959 19.79613383 48.36553831 22 51 C23.07314453 52.31677734 23.07314453 52.31677734 24.16796875 53.66015625 C34.13141221 65.35177221 45.59140546 71.73838403 61 73 C65.99929624 73.21748958 70.99647209 73.29441505 76 73.3125 C76.69153168 73.31511841 77.38306335 73.31773682 78.09555054 73.32043457 C88.58560634 73.32469406 98.06398284 72.64029738 108 69 C108.97582031 68.66484375 109.95164062 68.3296875 110.95703125 67.984375 C115.79605934 66.19896493 119.78926486 63.9475146 124 61 C124.66 61 125.32 61 126 61 C126 61.66 126 62.32 126 63 C124.515 63.495 124.515 63.495 123 64 C121.31267723 65.98260426 119.64633943 67.9832342 118 70 C115 72 115 72 112 72 C112 72.66 112 73.32 112 74 C107.69767442 78.76744186 107.69767442 78.76744186 104 80 C104 80.66 104 81.32 104 82 C101.21024957 83.52110826 98.74341246 84.3630556 95.625 84.9375 C92.66950307 85.54499203 90.66789072 86.16944351 87.9375 87.5625 C81.3157395 90.80293599 73.29494473 90.18254966 66.0625 90.1875 C65.12470703 90.19974609 64.18691406 90.21199219 63.22070312 90.22460938 C50.71087093 90.25068964 40.71509331 87.04964874 31 79 C30.22011719 78.71382813 29.44023438 78.42765625 28.63671875 78.1328125 C19.97760445 74.41260043 14.48676451 64.85478196 10 57 C9.43345703 56.03513672 9.43345703 56.03513672 8.85546875 55.05078125 C2.06007977 42.57000708 -0.12928173 29.30196106 -0.625 15.3125 C-0.6765625 14.06404297 -0.728125 12.81558594 -0.78125 11.52929688 C-0.82507812 10.34013672 -0.86890625 9.15097656 -0.9140625 7.92578125 C-0.9548291 6.83692627 -0.9955957 5.74807129 -1.03759766 4.6262207 C-1 2 -1 2 0 0 Z " fill="#0075F5" transform="translate(34,110)"/>
<path d="M0 0 C9.68616832 -0.31959439 17.48717067 2.16941487 26.203125 6.1484375 C26.203125 6.8084375 26.203125 7.4684375 26.203125 8.1484375 C26.821875 8.4578125 27.440625 8.7671875 28.078125 9.0859375 C29.453125 9.7734375 30.828125 10.4609375 32.203125 11.1484375 C32.203125 11.8084375 32.203125 12.4684375 32.203125 13.1484375 C32.863125 13.1484375 33.523125 13.1484375 34.203125 13.1484375 C35.92821696 15.38839395 37.54866627 17.62928078 39.140625 19.9609375 C40.02207073 21.24012438 40.90610892 22.5175295 41.79296875 23.79296875 C42.18347412 24.36378174 42.57397949 24.93459473 42.97631836 25.52270508 C44.18630198 27.21027202 44.18630198 27.21027202 45.81079102 28.72143555 C47.49598527 30.44858975 47.79876477 31.80314815 48.203125 34.1484375 C44.57532211 33.44712 41.64975323 31.92208441 38.390625 30.2109375 C34.00937685 27.99919898 30.03117861 26.16486984 25.203125 25.1484375 C24.35363281 24.96539062 23.50414062 24.78234375 22.62890625 24.59375 C3.01254365 20.92667069 -20.63953766 21.34326428 -38 32.140625 C-40.13016077 33.66981862 -42.18322485 35.19388023 -44.171875 36.8984375 C-45.47125 38.0121875 -45.47125 38.0121875 -46.796875 39.1484375 C-45.29412482 31.98147508 -41.21486924 24.9375334 -36.796875 19.1484375 C-36.136875 19.1484375 -35.476875 19.1484375 -34.796875 19.1484375 C-34.53390625 18.56835938 -34.2709375 17.98828125 -34 17.390625 C-29.08478247 8.23044687 -20.25726761 4.34271124 -10.796875 1.1484375 C-7.19656403 0.20787183 -3.70798286 0.19679239 0 0 Z " fill="#481BE7" transform="translate(185.796875,212.8515625)"/>
<path d="M0 0 C0.90185532 0.00202423 1.80371063 0.00404846 2.7328949 0.00613403 C3.67753098 0.00438171 4.62216705 0.00262939 5.59542847 0.00082397 C8.73436797 -0.00359624 11.87325164 -0.00065595 15.01219177 0.00271606 C17.18313101 0.00204307 19.35407018 0.00107309 21.52500916 -0.00018311 C26.08145361 -0.00166031 30.6378785 0.0004952 35.19432068 0.00515747 C41.04920763 0.01085477 46.90404875 0.00757588 52.75893402 0.00158501 C57.24374235 -0.00202 61.72853973 -0.0008823 66.21334839 0.0017128 C68.37282313 0.00238224 70.53229886 0.00155307 72.69177246 -0.00076675 C75.70420485 -0.00329229 78.7165619 0.00054592 81.72898865 0.00613403 C82.63084396 0.0041098 83.53269928 0.00208557 84.46188354 0 C90.61667946 0.02126625 90.61667946 0.02126625 91.73094177 1.13552856 C91.8304063 2.90412049 91.86174395 4.67664307 91.86375427 6.44802856 C91.86504333 7.52310669 91.8663324 8.59818481 91.86766052 9.70584106 C91.86379333 10.83763794 91.85992615 11.96943481 91.85594177 13.13552856 C91.85980896 14.26732544 91.86367615 15.39912231 91.86766052 16.56521606 C91.86637146 17.64029419 91.8650824 18.71537231 91.86375427 19.82302856 C91.86262634 20.81689575 91.86149841 21.81076294 91.8603363 22.83474731 C91.73094177 25.13552856 91.73094177 25.13552856 90.73094177 26.13552856 C88.73662448 26.22957998 86.73894634 26.25296106 84.74241638 26.24905396 C83.46116379 26.24897842 82.17991119 26.24890289 80.85983276 26.24882507 C79.45098329 26.24371766 78.04213422 26.23850165 76.63328552 26.23318481 C75.19981943 26.23132059 73.7663527 26.22989671 72.33288574 26.22889709 C68.5533422 26.22507229 64.77383687 26.21524233 60.99430847 26.20419312 C57.14024879 26.19397819 53.28618295 26.1893993 49.43211365 26.18435669 C41.86503891 26.17362002 34.29799568 26.15654406 26.73094177 26.13552856 C26.74665222 27.56602539 26.74665222 27.56602539 26.76268005 29.02542114 C26.79888678 32.56444544 26.82184462 36.10345337 26.84080505 39.64260864 C26.85086112 41.17421217 26.86450777 42.70579651 26.88182068 44.23733521 C26.90608676 46.43912492 26.91742865 48.64066075 26.92625427 50.84255981 C26.93657684 51.5270369 26.94689941 52.21151398 26.95753479 52.91673279 C26.95839559 56.56614517 26.81661843 58.00701358 24.73094177 61.13552856 C23.28012095 32.97957234 23.28012095 32.97957234 23.73094177 24.13552856 C24.73094177 23.13552856 24.73094177 23.13552856 27.31884766 23.01527405 C28.47134506 23.01749466 29.62384247 23.01971527 30.81126404 23.02200317 C32.76317406 23.02211647 32.76317406 23.02211647 34.7545166 23.02223206 C36.18546079 23.02733948 37.6164046 23.03255548 39.04734802 23.03787231 C40.50323437 23.03973653 41.95912135 23.04116042 43.41500854 23.04216003 C47.25373556 23.04598491 51.09242497 23.05581493 54.93113708 23.06686401 C58.84551993 23.07707879 62.75990883 23.0816578 66.67430115 23.08670044 C74.35986719 23.09743723 82.04539443 23.11503377 89.73094177 23.13552856 C89.23594177 12.74052856 89.23594177 12.74052856 88.73094177 2.13552856 C87.41094177 2.46552856 86.09094177 2.79552856 84.73094177 3.13552856 C81.81730377 3.2254206 78.92840524 3.26170214 76.01512146 3.24905396 C75.12254261 3.24917449 74.22996376 3.24929502 73.31033707 3.24941921 C70.42447152 3.24867353 67.53867075 3.24106095 64.65281677 3.23318481 C62.86977672 3.23171433 61.08673625 3.23069427 59.30369568 3.23013306 C52.69610446 3.22489253 46.08852248 3.21093132 39.48094177 3.19802856 C24.71344177 3.17740356 9.94594177 3.15677856 -5.26905823 3.13552856 C-5.26905823 49.99552856 -5.26905823 96.85552856 -5.26905823 145.13552856 C4.63094177 145.13552856 14.53094177 145.13552856 24.73094177 145.13552856 C24.73094177 125.99552856 24.73094177 106.85552856 24.73094177 87.13552856 C25.39094177 87.13552856 26.05094177 87.13552856 26.73094177 87.13552856 C26.73094177 106.60552856 26.73094177 126.07552856 26.73094177 146.13552856 C23.82868626 147.58665632 21.28182944 147.26538016 18.04344177 147.26834106 C17.38513367 147.26929779 16.72682556 147.27025452 16.04856873 147.27124023 C14.65655929 147.27192081 13.26454667 147.27007503 11.87254333 147.26589966 C9.73933294 147.26054961 7.6063331 147.26584869 5.47312927 147.27224731 C4.12156631 147.27158651 2.77000347 147.2703053 1.41844177 147.26834106 C-0.43200745 147.26664917 -0.43200745 147.26664917 -2.31983948 147.2649231 C-5.26905823 147.13552856 -5.26905823 147.13552856 -7.26905823 146.13552856 C-7.29238605 127.24714976 -7.31003683 108.35877386 -7.3208704 89.47038364 C-7.32603361 80.70080141 -7.33307677 71.93122811 -7.34449768 63.16165161 C-7.35444377 55.52089954 -7.36091148 47.88015393 -7.36314672 40.23939556 C-7.36445396 36.19114471 -7.36754061 32.14291237 -7.37478828 28.09466743 C-7.38154732 24.28871987 -7.38367543 20.48279854 -7.38216591 16.67684555 C-7.38244229 15.27595185 -7.38444811 13.87505731 -7.3882637 12.47416878 C-7.39319906 10.56963349 -7.39145622 8.6650843 -7.38931274 6.76054382 C-7.39023454 5.69218575 -7.39115633 4.62382769 -7.39210606 3.52309513 C-7.14520313 -1.26770187 -4.08411253 0.01411156 0 0 Z " fill="#173D75" transform="translate(402.26905822753906,115.86447143554688)"/>
<path d="M0 0 C3.96505359 2.7377751 7.07686225 5.16808674 8.625 9.8125 C8.7442902 11.80991736 8.80023935 13.81156124 8.8125 15.8125 C8.82667969 16.864375 8.84085938 17.91625 8.85546875 19 C8.625 21.8125 8.625 21.8125 6.625 24.8125 C5.965 24.8125 5.305 24.8125 4.625 24.8125 C4.46 25.410625 4.295 26.00875 4.125 26.625 C1.76470375 30.06709869 -1.42143517 30.84157154 -5.375 31.8125 C-11.46781725 32.78876222 -16.35971896 31.38213462 -21.375 27.8125 C-25.50967859 23.25375181 -26.43783298 18.80257749 -26.375 12.8125 C-25.59121067 7.03205371 -23.49766412 4.50553754 -19.12890625 0.9765625 C-13.70187264 -2.62534399 -5.90318411 -2.07704626 0 0 Z " fill="#1788EA" transform="translate(532.375,109.1875)"/>
<path d="M0 0 C3.38696013 1.98027911 5.19199029 3.52344375 6.5625 7.3125 C7.89830636 14.09671342 8.26228819 19.34509969 4.5625 25.3125 C0.29268824 29.78009596 -3.55219192 31.46219155 -9.6875 31.625 C-14.86725617 31.53616513 -18.70229599 31.09608748 -22.4375 27.3125 C-25.51886315 22.90507758 -27.4375 19.04930609 -27.4375 13.625 C-25.36207268 6.750147 -23.97063718 2.85128264 -17.4375 -0.6875 C-11.63519231 -2.62160256 -5.59712908 -2.57053335 0 0 Z " fill="#1391F3" transform="translate(861.4375,109.6875)"/>
<path d="M0 0 C10 2 10 2 12.3359375 2.51367188 C15.02036442 3.00371755 17.57570592 3.20485346 20.30078125 3.31640625 C21.27724609 3.35830078 22.25371094 3.40019531 23.25976562 3.44335938 C24.77086914 3.50233398 24.77086914 3.50233398 26.3125 3.5625 C27.85260742 3.62727539 27.85260742 3.62727539 29.42382812 3.69335938 C31.94909569 3.79906825 34.47445562 3.90116468 37 4 C37 4.33 37 4.66 37 5 C35.02 5 33.04 5 31 5 C31.5053125 5.54269531 32.010625 6.08539063 32.53125 6.64453125 C33.50578125 7.71767578 33.50578125 7.71767578 34.5 8.8125 C35.47453125 9.87404297 35.47453125 9.87404297 36.46875 10.95703125 C38 13 38 13 38 16 C37.566875 15.505 37.13375 15.01 36.6875 14.5 C35.00259517 12.66781808 35.00259517 12.66781808 32 13 C29.3125 10.625 29.3125 10.625 27 8 C27 7.34 27 6.68 27 6 C22.45890328 10.26587874 18.75264754 15.03612328 15 20 C14.505 19.01 14.505 19.01 14 18 C14.9375 15.875 14.9375 15.875 16 14 C15.5153125 14.49628906 15.030625 14.99257812 14.53125 15.50390625 C-4.917165 35.21412684 -29.40115645 52.87074995 -58.13793945 53.19091797 C-73.51885984 53.16602687 -86.51215116 50.71277132 -99 41 C-99 40.34 -99 39.68 -99 39 C-96.27251785 40.3094328 -93.7696566 41.76640544 -91.25 43.4375 C-82.00290514 49.26420103 -73.00270146 50.18023466 -62.25 50.1875 C-61.3115625 50.19974609 -60.373125 50.21199219 -59.40625 50.22460938 C-51.76343456 50.24044394 -44.57214797 49.53092056 -37.5 46.5 C-33.09268359 44.61115011 -28.70786318 43.80516775 -24 43 C-24 42.34 -24 41.68 -24 41 C-19.69767442 36.23255814 -19.69767442 36.23255814 -16 35 C-16 34.34 -16 33.68 -16 33 C-14.9275 32.443125 -13.855 31.88625 -12.75 31.3125 C-9.32172506 29.38409535 -7.41640013 27.10680017 -5 24 C-4.01 24 -3.02 24 -2 24 C-2 23.34 -2 22.68 -2 22 C-0.35546875 20.7109375 -0.35546875 20.7109375 1.8125 19.375 C2.52019531 18.92898437 3.22789062 18.48296875 3.95703125 18.0234375 C6 17 6 17 9 17 C9.495 15.515 9.495 15.515 10 14 C12.0625 13.3125 12.0625 13.3125 14 13 C14.185625 12.1028125 14.185625 12.1028125 14.375 11.1875 C15 9 15 9 17 6 C12.01716284 4.85948394 7.05531868 3.77774134 2 3 C2 2.34 2 1.68 2 1 C1.01 0.505 1.01 0.505 0 0 Z " fill="#0150F0" transform="translate(162,149)"/>
<path d="M0 0 C0.93423645 3.01031744 1.04449911 3.86650268 0 7 C-0.25331497 11.37343936 -0.27106604 15.74934863 -0.29516602 20.12915039 C-0.30656645 21.56512398 -0.32682355 23.00105934 -0.35668945 24.43676758 C-0.62534288 37.372655 0.82909489 49.4400568 8.375 60.375 C8.77074219 60.95531982 9.16648438 61.53563965 9.57421875 62.13354492 C10.69762969 63.76857441 11.84790887 65.38505121 13 67 C13.52851563 67.77214844 14.05703125 68.54429687 14.6015625 69.33984375 C19.18771434 75.80913615 24.73656836 82.59813961 32 86 C33.33333333 87.33333333 34.66666667 88.66666667 36 90 C38.13309192 91.23512079 38.13309192 91.23512079 40 92 C40 92.66 40 93.32 40 94 C41.2375 94.37125 41.2375 94.37125 42.5 94.75 C45.19916902 95.71398894 47.33757256 96.69856203 49.8125 98.0625 C54.11138023 100.29924813 58.20549273 100.77803207 63 101 C59.90109714 103.06593524 58.66931753 103.87294607 55 104 C52.10165 102.82960235 49.51926036 101.21824359 46.875 99.5625 C45.73949707 98.86797729 45.73949707 98.86797729 44.58105469 98.15942383 C42.37307708 96.79413729 40.18349177 95.40404444 38 94 C36.97648437 93.34257812 35.95296875 92.68515625 34.8984375 92.0078125 C15.93226987 78.97206897 0.81896372 59.09481862 -3.75 36.25 C-4.82410778 23.84661249 -4.83220686 11.55527727 0 0 Z " fill="#1B012A" transform="translate(129,244)"/>
<path d="M0 0 C0.76441406 -0.01417969 1.52882812 -0.02835938 2.31640625 -0.04296875 C4.4375 0.1875 4.4375 0.1875 7.4375 2.1875 C8.3125 5.625 8.3125 5.625 8.4375 9.1875 C7 11.125 7 11.125 5.4375 12.1875 C5.4375 9.5475 5.4375 6.9075 5.4375 4.1875 C3.68784642 4.13320041 1.93770213 4.09457177 0.1875 4.0625 C-0.78703125 4.03929687 -1.7615625 4.01609375 -2.765625 3.9921875 C-5.63765193 4.19274804 -7.06139447 4.87493635 -9.5625 6.1875 C-10.8825 6.1875 -12.2025 6.1875 -13.5625 6.1875 C-13.789375 6.97125 -14.01625 7.755 -14.25 8.5625 C-15.89687038 11.85624075 -17.20608353 11.98263255 -20.5625 13.1875 C-20.8925 14.1775 -21.2225 15.1675 -21.5625 16.1875 C-22.635 16.703125 -23.7075 17.21875 -24.8125 17.75 C-29.85506134 20.38044953 -31.47245715 25.14057624 -33.5625 30.1875 C-34.2225 30.1875 -34.8825 30.1875 -35.5625 30.1875 C-34.12825334 24.45051334 -31.23144995 20.67358803 -27.5625 16.1875 C-26.97339844 15.42824219 -26.38429687 14.66898438 -25.77734375 13.88671875 C-19.20962612 5.86250522 -10.60673753 0.08973551 0 0 Z " fill="#01628F" transform="translate(248.5625,43.8125)"/>
<path d="M0 0 C2.72748215 1.3094328 5.2303434 2.76640544 7.75 4.4375 C16.99709486 10.26420103 25.99729854 11.18023466 36.75 11.1875 C37.6884375 11.19974609 38.626875 11.21199219 39.59375 11.22460938 C48.83617513 11.24375805 56.54789431 9.75649142 65 6 C69.26880295 4.73577759 73.62586553 3.82015021 78 3 C64.51757387 14.55143926 43.3845484 14.97171194 26.6640625 13.7578125 C16.90878548 12.50319682 7.74707997 8.02550664 0 2 C0 1.34 0 0.68 0 0 Z " fill="#01183D" transform="translate(63,188)"/>
<path d="M0 0 C1 3 1 3 0.07421875 5.71484375 C-1.16356158 9.50020105 -1.23161368 12.58825889 -1.1875 16.5625 C-1.18105469 17.84253906 -1.17460937 19.12257813 -1.16796875 20.44140625 C-1.02693395 23.42937609 -0.6956623 26.10047953 0 29 C0.99 29.33 1.98 29.66 3 30 C4.03485877 32.31808364 5.0355414 34.65175298 6 37 C6.66 37.33 7.32 37.66 8 38 C8 38.66 8 39.32 8 40 C9.258125 40.103125 10.51625 40.20625 11.8125 40.3125 C15.30512331 40.74141865 16.70396364 41.26662338 19 44 C21.59915538 45.19027984 21.59915538 45.19027984 24 46 C18.35861116 47.88046295 12.16863191 43.49097723 7 41 C1.87496157 38.3689184 -1.27032315 35.16168089 -3.33984375 29.77734375 C-5.80825835 19.39247524 -4.04257417 9.69134969 0 0 Z " fill="#00496D" transform="translate(143,99)"/>
<path d="M0 0 C0 0.33 0 0.66 0 1 C-0.6034021 0.99777939 -1.2068042 0.99555878 -1.82849121 0.99327087 C-8.18920287 0.97090398 -14.54990311 0.95596452 -20.91064453 0.94506836 C-23.27490697 0.94008318 -25.6391664 0.93329263 -28.00341797 0.92456055 C-41.0426068 0.87765699 -53.99958797 0.9038626 -67 2 C-66.67 5.3 -66.34 8.6 -66 12 C-68.63546144 8.04680784 -68.59775017 4.62587309 -69 0 C-58.94387342 -0.91128288 -48.89907429 -1.33615523 -38.80834961 -1.61254883 C-37.06632102 -1.66236744 -35.32444039 -1.71767352 -33.58276367 -1.77856445 C-22.15182942 -2.17793131 -11.31064933 -1.81797732 0 0 Z " fill="#342A83" transform="translate(710,217)"/>
<path d="M0 0 C3.74209923 4.55559906 4.32089367 8.05383122 4.2109375 13.98046875 C3.70995772 18.77688625 1.52524257 21.49759406 -1.875 24.75 C-7.85587766 29.05623192 -12.74044815 29.70145976 -20 29 C-26.47396563 27.5733298 -31.68199119 23.80385353 -37 20 C-36.34 19.67 -35.68 19.34 -35 19 C-32.99029266 19.98034504 -30.99270131 20.98553388 -29 22 C-22.30942674 24.83521322 -13.06052555 27.91110406 -5.97265625 25.234375 C-3.25246227 23.4519496 -0.44219697 21.3042012 0.6171875 18.1796875 C1.6678813 12.19716564 1.24550625 5.91615469 0 0 Z " fill="#13053B" transform="translate(288,224)"/>
<path d="M0 0 C3.72993339 0.73787813 6.05100085 2.43155115 9.10546875 4.67578125 C17.94597464 10.85502145 28.87478008 13.64544386 39 17 C39 17.33 39 17.66 39 18 C32.45532148 17.48550504 27.10721063 15.75443456 21.0625 13.25 C20.22009766 12.91484375 19.37769531 12.5796875 18.50976562 12.234375 C12.75355832 9.89466949 7.36211682 7.13539953 2 4 C1.94140112 7.83326795 1.90620357 11.66641888 1.875 15.5 C1.85824219 16.57765625 1.84148438 17.6553125 1.82421875 18.765625 C1.7951953 23.52547089 1.79829314 27.92205043 3.0703125 32.53125 C3.97544364 35.90837795 3.98546408 36.85134313 3 40 C0.23687477 31.61316523 -0.54930119 23.734798 -0.75 14.9375 C-0.79253906 13.71611328 -0.83507813 12.49472656 -0.87890625 11.23632812 C-1.146745 2.29348999 -1.146745 2.29348999 0 0 Z " fill="#00252F" transform="translate(34,110)"/>
<path d="M0 0 C0 4.12462515 -2.18195553 5.78581787 -4.875 8.625 C-5.3695166 9.15552979 -5.8640332 9.68605957 -6.37353516 10.23266602 C-10.32532526 14.41672922 -14.50259637 18.29728632 -18.83203125 22.08984375 C-21.33687549 24.29681462 -23.67817495 26.60327737 -26 29 C-26.33 29.33 -26.66 29.66 -27 30 C-27.04080783 31.99958364 -27.04254356 34.00045254 -27 36 C-27.99 36 -28.98 36 -30 36 C-29.67 34.35 -29.34 32.7 -29 31 C-29.66 31 -30.32 31 -31 31 C-31.2475 31.639375 -31.495 32.27875 -31.75 32.9375 C-33 35 -33 35 -35.125 35.75 C-35.74375 35.8325 -36.3625 35.915 -37 36 C-36.67 35.34 -36.34 34.68 -36 34 C-35.34 34 -34.68 34 -34 34 C-34 33.01 -34 32.02 -34 31 C-33.34 31 -32.68 31 -32 31 C-32 30.34 -32 29.68 -32 29 C-31.34 29 -30.68 29 -30 29 C-30 28.34 -30 27.68 -30 27 C-28.35146268 25.97038722 -26.68111286 24.97551901 -25 24 C-16.03041904 16.75910192 -8.08572788 8.19105299 0 0 Z " fill="#112CD6" transform="translate(160,208)"/>
<path d="M0 0 C1.65 0 3.3 0 5 0 C4.67 1.32 4.34 2.64 4 4 C4.71285156 4.08507812 5.42570313 4.17015625 6.16015625 4.2578125 C9.61577529 5.16093164 11.6206749 6.69345886 14.4375 8.875 C18.15216989 11.73894179 21.74754347 14.00842242 26 16 C22.91190305 17.76462683 21.76687864 18 18 18 C18 17.34 18 16.68 18 16 C16.906875 15.71125 15.81375 15.4225 14.6875 15.125 C10.83720447 13.95033357 8.70900814 13.19242279 6.625 9.6875 C5.04236244 6.82805835 5.04236244 6.82805835 2.3125 4.3125 C1.549375 3.549375 0.78625 2.78625 0 2 C0 1.34 0 0.68 0 0 Z " fill="#006FF1" transform="translate(193,154)"/>
<path d="M0 0 C7.26 0 14.52 0 22 0 C22 0.33 22 0.66 22 1 C20.02 1 18.04 1 16 1 C16.5053125 1.54269531 17.010625 2.08539063 17.53125 2.64453125 C18.1809375 3.35996094 18.830625 4.07539063 19.5 4.8125 C20.1496875 5.52019531 20.799375 6.22789062 21.46875 6.95703125 C23 9 23 9 23 12 C22.566875 11.505 22.13375 11.01 21.6875 10.5 C20.00259517 8.66781808 20.00259517 8.66781808 17 9 C14.3125 6.625 14.3125 6.625 12 4 C12 3.34 12 2.68 12 2 C7.45890328 6.26587874 3.75264754 11.03612328 0 16 C-0.33 15.34 -0.66 14.68 -1 14 C-0.0126546 12.32580562 0.98812105 10.65948148 2 9 C2 8.01 2 7.02 2 6 C4 3.3125 4 3.3125 6 1 C4.02 1 2.04 1 0 1 C0 0.67 0 0.34 0 0 Z " fill="#01182F" transform="translate(177,153)"/>
<path d="M0 0 C0.66 0 1.32 0 2 0 C2 0.66 2 1.32 2 2 C2.99 2.33 3.98 2.66 5 3 C3.55746343 6.36591866 1.66735273 8.51047079 -1 11 C-1.33 10.01 -1.66 9.02 -2 8 C-5.54441029 11.4500325 -8.96106342 14.89171418 -12.0625 18.75 C-14.6677478 21.84982693 -17.16064498 23.54957699 -21 25 C-21.99 25 -22.98 25 -24 25 C-23.28972656 24.37351563 -22.57945312 23.74703125 -21.84765625 23.1015625 C-20.92855469 22.28429687 -20.00945312 21.46703125 -19.0625 20.625 C-18.14597656 19.81289062 -17.22945312 19.00078125 -16.28515625 18.1640625 C-13.96398605 16.21290653 -13.96398605 16.21290653 -13 14 C-12.01 13.67 -11.02 13.34 -10 13 C-8.232372 10.84274898 -6.56984507 8.69236968 -4.9375 6.4375 C-3.33987765 4.23587035 -1.71540509 2.1155682 0 0 Z " fill="#018BD8" transform="translate(187,155)"/>
<path d="M0 0 C0.52184917 21.36637834 -0.86537125 38.8711572 -11 58 C-11.99 58.495 -11.99 58.495 -13 59 C-12.67 56.36 -12.34 53.72 -12 51 C-11.01 51 -10.02 51 -9 51 C-8.67 48.36 -8.34 45.72 -8 43 C-7.34 43 -6.68 43 -6 43 C-5.5152477 40.88786497 -5.0357558 38.77442686 -4.578125 36.65625 C-4.21432401 34.98473194 -3.83155598 33.31711883 -3.421875 31.65625 C-1.33078876 22.21648926 -1.83057436 12.61019866 -2 3 C-3.36125 4.2684375 -3.36125 4.2684375 -4.75 5.5625 C-7.67025483 8.02603251 -7.67025483 8.02603251 -10.375 7.8125 C-10.91125 7.544375 -11.4475 7.27625 -12 7 C-10.73299277 6.0158875 -9.4612381 5.03788503 -8.1875 4.0625 C-7.47980469 3.51722656 -6.77210938 2.97195312 -6.04296875 2.41015625 C-4.12856562 1.08874223 -2.42811773 0 0 0 Z " fill="#001339" transform="translate(341,109)"/>
<path d="M0 0 C1.32 0 2.64 0 4 0 C4 0.66 4 1.32 4 2 C4.78375 2.144375 5.5675 2.28875 6.375 2.4375 C9 3 9 3 11 4 C17.18087543 5.05014472 23.43252437 5.1924001 29.6875 5.1875 C30.98155762 5.1884668 30.98155762 5.1884668 32.30175781 5.18945312 C39.67258309 5.12928312 46.74472772 4.3453485 54 3 C53 5 53 5 50.91357422 5.83618164 C43.89022324 7.7924088 37.40381981 8.51016514 30.125 8.4375 C29.07723389 8.43137695 28.02946777 8.42525391 26.94995117 8.41894531 C16.65836478 8.21150191 8.03916312 6.89484981 0 0 Z " fill="#47187F" transform="translate(634,256)"/>
<path d="M0 0 C0.28875 0.639375 0.5775 1.27875 0.875 1.9375 C1.82823451 4.15206079 1.82823451 4.15206079 4 5 C4.5625 6.875 4.5625 6.875 5 9 C5.33 9.99 5.66 10.98 6 12 C6.66 12 7.32 12 8 12 C11 16.38461538 11 16.38461538 11 19 C11.66 19 12.32 19 13 19 C14.34110685 20.66041801 15.6730112 22.32827745 17 24 C18.66730364 25.46473404 20.37684006 26.88278237 22.125 28.25 C22.99382812 28.93578125 23.86265625 29.6215625 24.7578125 30.328125 C26.8818307 32.01430556 26.8818307 32.01430556 29 33 C29 33.66 29 34.32 29 35 C29.763125 35.268125 30.52625 35.53625 31.3125 35.8125 C33.87380884 36.94424112 35.19692938 37.91223401 37 40 C35.68 40 34.36 40 33 40 C33 39.34 33 38.68 33 38 C32.236875 37.71125 31.47375 37.4225 30.6875 37.125 C28 36 28 36 25 34 C25 33.34 25 32.68 25 32 C24.29617187 31.78214844 23.59234375 31.56429688 22.8671875 31.33984375 C19.30564668 29.67552699 16.8414627 27.33165459 14.125 24.5625 C13.6005127 24.03406494 13.07602539 23.50562988 12.53564453 22.96118164 C7.86723015 18.12063658 4.33949293 12.82911491 1 7 C0.34 6.01 -0.32 5.02 -1 4 C-0.625 1.8125 -0.625 1.8125 0 0 Z " fill="#851CBB" transform="translate(136,298)"/>
<path d="M0 0 C8.58 0 17.16 0 26 0 C25.67 1.32 25.34 2.64 25 4 C25 3.34 25 2.68 25 2 C17.74 2 10.48 2 3 2 C2.14919029 10.28952576 2.14919029 10.28952576 1.9375 18.48828125 C1.94523438 19.60654297 1.95296875 20.72480469 1.9609375 21.87695312 C1.97382812 23.01068359 1.98671875 24.14441406 2 25.3125 C2.02557532 27.60021232 2.04658487 29.88798133 2.0625 32.17578125 C2.07410156 33.17520752 2.08570313 34.17463379 2.09765625 35.2043457 C2.00296629 37.91508249 1.61257723 40.3624812 1 43 C0.67 43 0.34 43 0 43 C0 28.81 0 14.62 0 0 Z " fill="#2192F9" transform="translate(792,117)"/>
<path d="M0 0 C3.05936637 3.75467691 5 7.08113061 5 12 C5.60714844 12.25394531 6.21429688 12.50789062 6.83984375 12.76953125 C9.28604367 14.16293627 10.13506579 15.28959896 11.5625 17.6875 C11.99046875 18.40292969 12.4184375 19.11835938 12.859375 19.85546875 C14 22 14 22 15.3125 25.5 C17.62826458 30.30306727 21.10043329 33.43388793 25 37 C21.09030078 37 20.4740993 35.90683689 17.75 33.1875 C12.97895138 28.25353753 9.39220289 22.94518892 6 17 C5.5875 16.28714844 5.175 15.57429687 4.75 14.83984375 C2.17380307 10.07577368 0.93561383 5.31822598 0 0 Z " fill="#004475" transform="translate(38,150)"/>
<path d="M0 0 C1.83203125 1.55078125 1.83203125 1.55078125 3 3 C2.071875 2.835 1.14375 2.67 0.1875 2.5 C-4.85733621 1.76299718 -9.91435711 1.91723185 -15 2 C-15.020625 3.258125 -15.04125 4.51625 -15.0625 5.8125 C-15.07410156 6.52019531 -15.08570312 7.22789063 -15.09765625 7.95703125 C-15.08263217 10.20305461 -15.08263217 10.20305461 -14 13 C-11.50639601 13.9951783 -11.50639601 13.9951783 -8.5625 14.625 C-3.10126582 15.94936709 -3.10126582 15.94936709 -1 17 C-1 17.66 -1 18.32 -1 19 C0.2065625 19.433125 0.2065625 19.433125 1.4375 19.875 C4 21 4 21 5 23 C2.44098147 22.0495074 0.12821986 21.08059534 -2.1875 19.625 C-4.82374088 18.10183861 -7.27059656 17.15241952 -10.125 16.125 C-13.41162465 14.84551165 -14.77950371 14.26726823 -17.0625 11.5 C-17.371875 10.675 -17.68125 9.85 -18 9 C-18.268125 8.319375 -18.53625 7.63875 -18.8125 6.9375 C-19.07329634 4.24260452 -18.65054326 3.15288251 -17 1 C-11.76577344 -1.81842969 -5.66124493 -1.32421585 0 0 Z " fill="#013641" transform="translate(136,45)"/>
<path d="M0 0 C3.33333333 0.66666667 6.66666667 1.33333333 10 2 C11.40185547 2.28037109 11.40185547 2.28037109 12.83203125 2.56640625 C13.54746094 2.70949219 14.26289063 2.85257813 15 3 C15 3.66 15 4.32 15 5 C16.98 5 18.96 5 21 5 C17.94955278 11.49123602 13.34998901 17.24445421 8 22 C7.34 22 6.68 22 6 22 C6 20.35 6 18.7 6 17 C6.99 17 7.98 17 9 17 C9.33 16.01 9.66 15.02 10 14 C12.0625 13.3125 12.0625 13.3125 14 13 C14.12375 12.401875 14.2475 11.80375 14.375 11.1875 C15 9 15 9 17 6 C12.01716284 4.85948394 7.05531868 3.77774134 2 3 C2 2.34 2 1.68 2 1 C1.34 0.67 0.68 0.34 0 0 Z " fill="#004F95" transform="translate(162,149)"/>
<path d="M0 0 C0.93423645 3.01031744 1.04449911 3.86650268 0 7 C-0.04635899 9.20784668 -0.03782457 11.41699062 0 13.625 C0.09298083 22.11267043 -0.4198137 30.53549635 -1 39 C-1.33 39 -1.66 39 -2 39 C-6.0722414 26.47745529 -5.05389805 12.08540839 0 0 Z " fill="#220B68" transform="translate(129,244)"/>
<path d="M0 0 C8.91 0 17.82 0 27 0 C27 2.97 27 5.94 27 9 C26.67 9 26.34 9 26 9 C26 6.36 26 3.72 26 1 C18.41 1 10.82 1 3 1 C2.20350644 11.64693514 2.20350644 11.64693514 2.0625 22.3125 C2 26 2 26 0 29 C0 19.43 0 9.86 0 0 Z " fill="#2A51B1" transform="translate(555,158)"/>
<path d="M0 0 C7.75 -0.125 7.75 -0.125 10 1 C10 1.66 10 2.32 10 3 C16.28097887 3.78827546 22.42135839 4.19243461 28.75 4.1875 C29.6152832 4.18814453 30.48056641 4.18878906 31.37207031 4.18945312 C38.40556357 4.13195151 45.09772508 3.41068393 52 2 C42.83752465 9.52631904 26.11464497 6.80500365 15 6 C9.68288757 5.06913812 4.86225977 3.35135187 0 1 C0 0.67 0 0.34 0 0 Z " fill="#01093F" transform="translate(243,195)"/>
<path d="M0 0 C-0.53753549 3.79582757 -1.93735453 5.03933372 -4.9375 7.3125 C-9.03530717 10.68845146 -9.88302557 12.92284349 -11 18 C-11.99 18.33 -12.98 18.66 -14 19 C-14.33 19.66 -14.66 20.32 -15 21 C-14.88490339 19.58249437 -14.75746342 18.16598831 -14.625 16.75 C-14.55539062 15.96109375 -14.48578125 15.1721875 -14.4140625 14.359375 C-13.50509229 9.17995985 -11.08178712 6.95372826 -7 3.75 C-6.113125 3.04359375 -5.22625 2.3371875 -4.3125 1.609375 C-2 0 -2 0 0 0 Z " fill="#135295" transform="translate(741,117)"/>
<path d="M0 0 C4.24994263 -0.05805933 8.49978324 -0.09361654 12.75 -0.125 C13.9565625 -0.14175781 15.163125 -0.15851563 16.40625 -0.17578125 C17.56640625 -0.18222656 18.7265625 -0.18867187 19.921875 -0.1953125 C20.99018555 -0.20578613 22.05849609 -0.21625977 23.15917969 -0.22705078 C25.97979105 -0.00161519 27.60787463 0.54151006 30 2 C30.02887814 5.47914941 30.04675687 8.95826831 30.0625 12.4375 C30.07087891 13.43072266 30.07925781 14.42394531 30.08789062 15.44726562 C30.09272461 16.86362305 30.09272461 16.86362305 30.09765625 18.30859375 C30.10551147 19.62041626 30.10551147 19.62041626 30.11352539 20.95874023 C30 23 30 23 29 24 C27.00041636 24.04080783 24.99954746 24.04254356 23 24 C23 23.67 23 23.34 23 23 C24.65 23 26.3 23 28 23 C27.91621094 22.154375 27.83242188 21.30875 27.74609375 20.4375 C27.64425781 19.303125 27.54242187 18.16875 27.4375 17 C27.33308594 15.88625 27.22867188 14.7725 27.12109375 13.625 C27 10 27 10 28 2 C14.14 1.505 14.14 1.505 0 1 C0 0.67 0 0.34 0 0 Z " fill="#0B3867" transform="translate(752,113)"/>
<path d="M0 0 C3.6439086 -0.05208043 7.27595356 -0.08935921 10.91796875 0.07421875 C11.41296875 0.56921875 11.41296875 0.56921875 11.91796875 1.07421875 C11.74161423 3.76504747 11.29960954 6.40273321 10.91796875 9.07421875 C10.58796875 9.07421875 10.25796875 9.07421875 9.91796875 9.07421875 C9.91796875 7.09421875 9.91796875 5.11421875 9.91796875 3.07421875 C2.32796875 3.07421875 -5.26203125 3.07421875 -13.08203125 3.07421875 C-13.41203125 4.06421875 -13.74203125 5.05421875 -14.08203125 6.07421875 C-16.51953125 7.82421875 -16.51953125 7.82421875 -19.08203125 9.07421875 C-19.74203125 8.74421875 -20.40203125 8.41421875 -21.08203125 8.07421875 C-19.54907728 5.06305917 -18.57292096 3.26031605 -16.08203125 1.07421875 C-10.85180774 -0.3777045 -5.38547681 0.10748193 0 0 Z " fill="#2E1A69" transform="translate(698.08203125,228.92578125)"/>
<path d="M0 0 C1.04639648 -0.00161133 2.09279297 -0.00322266 3.17089844 -0.00488281 C8.35557304 0.0700643 12.78391049 0.2954942 17.625 2.375 C14.34758565 3.46747145 13.78261138 3.22399919 10.625 2.375 C6.94022531 2.15436591 3.2532418 2.18987347 -0.4375 2.1875 C-1.94666992 2.16913086 -1.94666992 2.16913086 -3.48632812 2.15039062 C-4.45119141 2.14845703 -5.41605469 2.14652344 -6.41015625 2.14453125 C-7.2906665 2.14042236 -8.17117676 2.13631348 -9.07836914 2.13208008 C-11.65232963 2.22470063 -11.65232963 2.22470063 -14.375 4.375 C-17.41113229 6.09717588 -20.19772356 6.8686596 -23.625 7.5 C-24.96304688 7.75136719 -24.96304688 7.75136719 -26.328125 8.0078125 C-27.00359375 8.12898437 -27.6790625 8.25015625 -28.375 8.375 C-20.70316127 -0.00067715 -10.67866931 0.0160485 0 0 Z " fill="#20458C" transform="translate(663.375,156.625)"/>
<path d="M0 0 C2.475 0.495 2.475 0.495 5 1 C5.33 1.99 5.66 2.98 6 4 C7.32875961 4.67573672 8.66284094 5.34104032 10 6 C11.921875 7.9453125 11.921875 7.9453125 13.75 10.125 C14.36359375 10.84945312 14.9771875 11.57390625 15.609375 12.3203125 C16.06828125 12.87460938 16.5271875 13.42890625 17 14 C15.44363758 17.62590381 13.2207077 20.16858915 10.5625 23.0625 C9.38880859 24.34833984 9.38880859 24.34833984 8.19140625 25.66015625 C6.49079133 27.47596434 4.77582096 29.25843926 3 31 C4.41680244 26.67953102 6.53763785 23.99538801 9.625 20.6875 C10.44226563 19.80449219 11.25953125 18.92148438 12.1015625 18.01171875 C13.04128906 17.01591797 13.04128906 17.01591797 14 16 C12.60304032 11.27375917 10.29692821 9.27625908 6.4375 6.3125 C1.08589608 2.17179215 1.08589608 2.17179215 0 0 Z " fill="#012739" transform="translate(141,68)"/>
<path d="M0 0 C3.38696013 1.98027911 5.19199029 3.52344375 6.5625 7.3125 C8.38356888 17.68333292 8.38356888 17.68333292 5.5625 22.3125 C5.41554688 20.64960938 5.41554688 20.64960938 5.265625 18.953125 C5.1155084 17.48948816 4.96441535 16.02595124 4.8125 14.5625 C4.750625 13.83289063 4.68875 13.10328125 4.625 12.3515625 C4.24382252 8.85743558 3.83517085 6.65553752 1.625 3.875 C-3.14762935 0.25937171 -7.57550613 -0.0874411 -13.4375 0.3125 C-15.44470923 0.59924418 -17.44928687 0.91485737 -19.4375 1.3125 C-14.53800523 -3.58699477 -5.91820944 -2.71799248 0 0 Z " fill="#082945" transform="translate(861.4375,109.6875)"/>
<path d="M0 0 C0.33 0 0.66 0 1 0 C1.33 5.61 1.66 11.22 2 17 C2.33 17 2.66 17 3 17 C3.33 22.28 3.66 27.56 4 33 C1.99422202 29.99133303 1.54121497 28.35523925 0.9375 24.875 C0.58395374 21.63891608 0.58395374 21.63891608 -1 19 C-1.0983721 17.66956375 -1.13078592 16.33406656 -1.1328125 15 C-1.13410156 14.195625 -1.13539063 13.39125 -1.13671875 12.5625 C-1.13285156 11.716875 -1.12898437 10.87125 -1.125 10 C-1.12886719 9.154375 -1.13273438 8.30875 -1.13671875 7.4375 C-1.13542969 6.633125 -1.13414062 5.82875 -1.1328125 5 C-1.13168457 4.2575 -1.13055664 3.515 -1.12939453 2.75 C-1 1 -1 1 0 0 Z " fill="#241E58" transform="translate(613,202)"/>
<path d="M0 0 C1.32 0.33 2.64 0.66 4 1 C-3.25893216 7.6709181 -10.9452046 13.94917048 -20 18 C-18.57001435 14.47067372 -16.95386588 13.00514055 -13.75 11 C-12.94820312 10.48695313 -12.14640625 9.97390625 -11.3203125 9.4453125 C-10.17175781 8.72988281 -10.17175781 8.72988281 -9 8 C-5.23596282 5.63005067 -2.4200595 3.764537 0 0 Z " fill="#032384" transform="translate(162,173)"/>
<path d="M0 0 C0.66 0 1.32 0 2 0 C2.39832031 0.95261719 2.79664063 1.90523437 3.20703125 2.88671875 C3.74199105 4.1537288 4.27715832 5.42065126 4.8125 6.6875 C5.07353516 7.31333984 5.33457031 7.93917969 5.60351562 8.58398438 C6.82077368 11.45430892 8.09383499 14.15639165 9.69921875 16.83203125 C11 19 11 19 11 21 C11.66 21 12.32 21 13 21 C13.33 22.65 13.66 24.3 14 26 C9.97943781 22.49584029 7.75597864 18.37014303 5.25 13.75 C4.83878906 13.00492188 4.42757812 12.25984375 4.00390625 11.4921875 C2.99650456 9.66480769 1.99741214 7.83285137 1 6 C0.01 6.66 -0.98 7.32 -2 8 C-1.125 2.25 -1.125 2.25 0 0 Z " fill="#0057E0" transform="translate(187,165)"/>
<path d="M0 0 C-0.99 0.495 -0.99 0.495 -2 1 C-2 1.66 -2 2.32 -2 3 C-8.85884959 6.26889853 -14.40429561 7.58179863 -22 7 C-21 5 -21 5 -18.671875 4.21875 C-17.70765625 3.9815625 -16.7434375 3.744375 -15.75 3.5 C-12.83733092 2.77576877 -10.10066213 2.04073373 -7.31640625 0.9140625 C-4.72574483 -0.10822211 -2.75997176 -0.15771267 0 0 Z " fill="#0272A0" transform="translate(221,147)"/>
<path d="M0 0 C0.33 0 0.66 0 1 0 C1.19875714 2.43706837 1.38695521 4.87371059 1.5625 7.3125 C1.61494873 8.03928955 1.66739746 8.7660791 1.72143555 9.51489258 C1.99169034 13.84805754 1.9040778 17.86898206 1.3125 22.1875 C0.83355958 26.06574924 0.80017332 26.67125288 2.9375 30.1875 C3.618125 30.785625 4.29875 31.38375 5 32 C3.02 32 1.04 32 -1 32 C-1.14036598 21.28539694 -0.73259082 10.6879768 0 0 Z " fill="#8144F1" transform="translate(792,229)"/>
<path d="M0 0 C0.76441406 -0.01417969 1.52882812 -0.02835938 2.31640625 -0.04296875 C4.4375 0.1875 4.4375 0.1875 7.4375 2.1875 C8.3125 5.625 8.3125 5.625 8.4375 9.1875 C7 11.125 7 11.125 5.4375 12.1875 C5.47005208 10.13671875 5.50260417 8.0859375 5.53515625 6.03515625 C5.64311184 4.17017859 5.64311184 4.17017859 4.4375 3.1875 C2.6909241 3.06148865 0.9385766 3.01170506 -0.8125 3 C-1.76640625 2.98582031 -2.7203125 2.97164062 -3.703125 2.95703125 C-6.59730567 3.0477126 -6.59730567 3.0477126 -9.234375 4.26171875 C-11.5625 5.1875 -11.5625 5.1875 -14.5625 4.1875 C-9.53894066 1.56154853 -5.66507554 0.04792788 0 0 Z " fill="#022A3D" transform="translate(248.5625,43.8125)"/>
<path d="M0 0 C0.70640625 0.28875 1.4128125 0.5775 2.140625 0.875 C9.93137431 3.94021284 17.79258415 6.35851683 26 8 C26 8.33 26 8.66 26 9 C15.6009708 9.09031415 7.8614937 8.71031113 0 1 C0 0.67 0 0.34 0 0 Z " fill="#2F0C7D" transform="translate(251,243)"/>
<path d="M0 0 C-1.504 3.76 -1.504 3.76 -3.9375 4.9375 C-6.73650973 6.3794141 -7.45452358 8.29541626 -9 11 C-10.33333333 12.33333333 -11.66666667 13.66666667 -13 15 C-14.04349839 16.63978318 -15.05607981 18.30094366 -16 20 C-16.33 19.34 -16.66 18.68 -17 18 C-14.24343644 11.98567951 -7.30602615 0 0 0 Z " fill="#223A8C" transform="translate(635,165)"/>
<path d="M0 0 C0.33 0 0.66 0 1 0 C1 12.87 1 25.74 1 39 C-0.32 38.67 -1.64 38.34 -3 38 C-2.67854004 37.50145508 -2.35708008 37.00291016 -2.02587891 36.48925781 C-0.62240115 33.08377013 -0.64390763 29.80059295 -0.5859375 26.171875 C-0.56657135 25.42286926 -0.5472052 24.67386353 -0.5272522 23.90216064 C-0.46764284 21.51822164 -0.42114646 19.13423386 -0.375 16.75 C-0.33680299 15.13018769 -0.29775025 13.51039532 -0.2578125 11.890625 C-0.16195687 7.92724594 -0.07785754 3.96377181 0 0 Z " fill="#7C55F8" transform="translate(426,222)"/>
<path d="M0 0 C2.5482705 3.08591139 3.94908951 6.085036 5.375 9.8125 C6.88835839 13.59589597 8.38910611 16.83083794 10.875 20.0625 C11.57625 21.031875 12.2775 22.00125 13 23 C12.67 23.99 12.34 24.98 12 26 C6.14757048 17.57250149 1.79194492 10.18579217 0 0 Z " fill="#001322" transform="translate(38,150)"/>
<path d="M0 0 C0 7.92 0 15.84 0 24 C-0.33 24 -0.66 24 -1 24 C-1.33 17.07 -1.66 10.14 -2 3 C-4.97 5.475 -4.97 5.475 -8 8 C-10.375 7.8125 -10.375 7.8125 -12 7 C-10.73299277 6.0158875 -9.4612381 5.03788503 -8.1875 4.0625 C-7.47980469 3.51722656 -6.77210938 2.97195312 -6.04296875 2.41015625 C-4.12856562 1.08874223 -2.42811773 0 0 0 Z " fill="#001429" transform="translate(341,109)"/>
<path d="M0 0 C0.33 0 0.66 0 1 0 C1.35142196 3.23648286 1.30933949 4.58778715 -0.6796875 7.23828125 C-1.40414062 7.92277344 -2.12859375 8.60726562 -2.875 9.3125 C-3.59429687 10.00988281 -4.31359375 10.70726562 -5.0546875 11.42578125 C-7 13 -7 13 -9 13 C-9 11.35 -9 9.7 -9 8 C-8.01 8 -7.02 8 -6 8 C-5.67 7.01 -5.34 6.02 -5 5 C-2.9375 4.3125 -2.9375 4.3125 -1 4 C-0.67 2.68 -0.34 1.36 0 0 Z " fill="#0241A3" transform="translate(177,158)"/>
<path d="M0 0 C1.98 0.66 3.96 1.32 6 2 C6 2.66 6 3.32 6 4 C11.61 4 17.22 4 23 4 C19.92744663 7.07255337 17.56013602 6.953322 13.25 7.3125 C8.64992633 7.26071681 4.68909999 5.75072543 1 3 C0.67 2.01 0.34 1.02 0 0 Z " fill="#0D2A58" transform="translate(510,134)"/>
<path d="M0 0 C0.99 0.33 1.98 0.66 3 1 C3 1.66 3 2.32 3 3 C4.15628906 3.30744141 4.15628906 3.30744141 5.3359375 3.62109375 C6.33882813 3.89050781 7.34171875 4.15992188 8.375 4.4375 C9.37273437 4.70433594 10.37046875 4.97117187 11.3984375 5.24609375 C14 6 14 6 16 7 C16 7.66 16 8.32 16 9 C17.2065625 9.433125 17.2065625 9.433125 18.4375 9.875 C21 11 21 11 22 13 C19.44098147 12.0495074 17.12821986 11.08059534 14.8125 9.625 C11.41544129 7.66225497 7.90788736 6.44186204 4.20703125 5.16015625 C1.61038969 3.795196 1.00987889 2.70241335 0 0 Z " fill="#002130" transform="translate(119,55)"/>
<path d="M0 0 C1.65 0 3.3 0 5 0 C4.67 1.32 4.34 2.64 4 4 C5.32 4.33 6.64 4.66 8 5 C8 5.99 8 6.98 8 8 C8.66 8 9.32 8 10 8 C10 9.32 10 10.64 10 12 C10.66 12 11.32 12 12 12 C11.67 12.66 11.34 13.32 11 14 C8 12 8 12 6.625 9.6875 C5.04236244 6.82805835 5.04236244 6.82805835 2.3125 4.3125 C1.549375 3.549375 0.78625 2.78625 0 2 C0 1.34 0 0.68 0 0 Z " fill="#0160B1" transform="translate(193,154)"/>
<path d="M0 0 C-0.53675903 3.85103301 -2.11600923 5.31797587 -5.0625 7.75 C-6.16271484 8.67039062 -6.16271484 8.67039062 -7.28515625 9.609375 C-7.85105469 10.06828125 -8.41695312 10.5271875 -9 11 C-10 9 -10 9 -9.77734375 7.046875 C-8.81880496 4.52288341 -7.78284692 3.7456183 -5.5625 2.25 C-4.94503906 1.82203125 -4.32757812 1.3940625 -3.69140625 0.953125 C-2 0 -2 0 0 0 Z " fill="#1367B3" transform="translate(741,117)"/>
<path d="M0 0 C1.32 0.33 2.64 0.66 4 1 C3.25 7.75 3.25 7.75 1 10 C0 7 0 7 1 4 C0.34 4 -0.32 4 -1 4 C-1.2475 4.639375 -1.495 5.27875 -1.75 5.9375 C-3 8 -3 8 -5.125 8.75 C-6.053125 8.87375 -6.053125 8.87375 -7 9 C-6.67 8.34 -6.34 7.68 -6 7 C-5.34 7 -4.68 7 -4 7 C-4 6.01 -4 5.02 -4 4 C-3.34 4 -2.68 4 -2 4 C-2 3.34 -2 2.68 -2 2 C-1.34 2 -0.68 2 0 2 C0 1.34 0 0.68 0 0 Z " fill="#09288C" transform="translate(130,235)"/>
<path d="M0 0 C6.27 0 12.54 0 19 0 C18.67 0.66 18.34 1.32 18 2 C14.9489365 3.01702117 12.75800939 3.16582083 9.5625 3.1875 C8.14130859 3.20876953 8.14130859 3.20876953 6.69140625 3.23046875 C3.95498356 2.99614518 2.33571877 2.39701383 0 1 C0 0.67 0 0.34 0 0 Z " fill="#0E427A" transform="translate(842,138)"/>
<path d="M0 0 C0.99 0.33 1.98 0.66 3 1 C-3.7597743 4.42410997 -9.40047112 6.62625268 -17 7 C-13.92299531 4.38965005 -11.27761085 3.33224417 -7.375 2.375 C-3.58488321 1.46370464 -3.58488321 1.46370464 0 0 Z " fill="#022888" transform="translate(138,191)"/>
<path d="M0 0 C0.99 0.33 1.98 0.66 3 1 C2.49210938 1.30292969 1.98421875 1.60585937 1.4609375 1.91796875 C-3.02639994 4.64902618 -7.04684564 7.54098993 -11 11 C-10.34885612 7.48382303 -9.21333923 4.82391557 -7 2 C-3.875 1.25 -3.875 1.25 -1 1 C-0.67 0.67 -0.34 0.34 0 0 Z " fill="#6425F7" transform="translate(150,241)"/>
<path d="M0 0 C1 2 1 2 0.6875 4.0625 C0 6 0 6 -2 7 C-2.46898963 9.8159849 -2.46898963 9.8159849 -2.625 13.0625 C-2.69976562 14.16722656 -2.77453125 15.27195312 -2.8515625 16.41015625 C-2.90054687 17.26480469 -2.94953125 18.11945313 -3 19 C-5.76879844 14.35314061 -5.18629597 10.13508533 -4 5 C-1.9375 1.875 -1.9375 1.875 0 0 Z " fill="#08396B" transform="translate(511,112)"/>
<path d="M0 0 C1.19109375 -0.00386719 1.19109375 -0.00386719 2.40625 -0.0078125 C4.5 0.125 4.5 0.125 6.5 1.125 C6.17 1.785 5.84 2.445 5.5 3.125 C4.89671875 3.06699219 4.2934375 3.00898437 3.671875 2.94921875 C1.19629341 2.80946818 -1.0438985 2.76567362 -3.5 3.125 C-6.10910963 5.4433856 -6.10910963 5.4433856 -7.5 8.125 C-7.24438677 5.7818787 -6.90729228 3.44656597 -6.5 1.125 C-4.13386544 -0.05806728 -2.63219264 -0.00854608 0 0 Z " fill="#02C5EC" transform="translate(127.5,45.875)"/>
<path d="M0 0 C0 4.15560231 -2.2820452 5.84099329 -5 8.6875 C-5.47695312 9.19861328 -5.95390625 9.70972656 -6.4453125 10.23632812 C-7.62359915 11.49709484 -8.81095253 12.74937686 -10 14 C-10.33 13.01 -10.66 12.02 -11 11 C-7.37 7.37 -3.74 3.74 0 0 Z " fill="#0B2CC9" transform="translate(160,208)"/>
<path d="M0 0 C2.97 0.495 2.97 0.495 6 1 C6 1.66 6 2.32 6 3 C6.99 3.33 7.98 3.66 9 4 C10.51472274 6.27208411 11.78009593 8.56019185 13 11 C9.54691313 9.48729451 7.04375621 7.45279358 4.25 4.9375 C3.45078125 4.22464844 2.6515625 3.51179687 1.828125 2.77734375 C1.22484375 2.19082031 0.6215625 1.60429687 0 1 C0 0.67 0 0.34 0 0 Z " fill="#012E86" transform="translate(205,169)"/>
<path d="M0 0 C1.32 0 2.64 0 4 0 C4 0.66 4 1.32 4 2 C5.258125 2.103125 6.51625 2.20625 7.8125 2.3125 C11.30512331 2.74141865 12.70396364 3.26662338 15 6 C17.59915538 7.19027984 17.59915538 7.19027984 20 8 C15.97381819 9.3420606 13.67728301 7.89272069 10 6.25 C9.3709375 5.98445312 8.741875 5.71890625 8.09375 5.4453125 C4.86902236 4.03791018 2.25164539 2.74833187 0 0 Z " fill="#011B30" transform="translate(147,137)"/>
<path d="M0 0 C0 1.65 0 3.3 0 5 C-2.64 5.99 -5.28 6.98 -8 8 C-8 6.68 -8 5.36 -8 4 C-1.125 0 -1.125 0 0 0 Z " fill="#0256E5" transform="translate(168,167)"/>
<path d="M0 0 C0.28875 0.639375 0.5775 1.27875 0.875 1.9375 C1.82823451 4.15206079 1.82823451 4.15206079 4 5 C4.5625 6.875 4.5625 6.875 5 9 C5.33 9.99 5.66 10.98 6 12 C6.66 12 7.32 12 8 12 C8.33 12.99 8.66 13.98 9 15 C5.4332051 13.55463213 3.81469101 11.80259054 1.6875 8.625 C1.15511719 7.85414063 0.62273437 7.08328125 0.07421875 6.2890625 C-1 4 -1 4 -0.66796875 1.7109375 C-0.44753906 1.14632813 -0.22710937 0.58171875 0 0 Z " fill="#7D17D5" transform="translate(136,298)"/>
<path d="M0 0 C0.66 0 1.32 0 2 0 C2 0.66 2 1.32 2 2 C2.99 2.33 3.98 2.66 5 3 C4.34 4.32 3.68 5.64 3 7 C0.525 6.01 0.525 6.01 -2 5 C-1.125 1.125 -1.125 1.125 0 0 Z " fill="#02A3EC" transform="translate(187,155)"/>
<path d="M0 0 C0.99 0.33 1.98 0.66 3 1 C1.68 1.33 0.36 1.66 -1 2 C-1 2.66 -1 3.32 -1 4 C-4.33909037 6.22606025 -7.09914263 7.11033078 -11 8 C-13.22265625 7.55078125 -13.22265625 7.55078125 -15 7 C-14.16855469 6.66226563 -13.33710938 6.32453125 -12.48046875 5.9765625 C-11.39378906 5.53054687 -10.30710937 5.08453125 -9.1875 4.625 C-8.10855469 4.18414062 -7.02960938 3.74328125 -5.91796875 3.2890625 C-2.89269888 2.0520881 -2.89269888 2.0520881 0 0 Z " fill="#02284D" transform="translate(326,117)"/>
<path d="M0 0 C0.99 0.33 1.98 0.66 3 1 C2.401875 1.556875 1.80375 2.11375 1.1875 2.6875 C-0.98675988 4.9860033 -2.39093014 7.29383705 -4 10 C-4.99 10.495 -4.99 10.495 -6 11 C-5.62671065 5.64951939 -4.0042343 3.49087093 0 0 Z " fill="#018EEB" transform="translate(92,218)"/>
<path d="M0 0 C6.68993219 0.53951066 12.63460728 1.88706171 19 4 C19 4.33 19 4.66 19 5 C14.87437883 4.4618755 10.77948141 3.81675492 6.6875 3.0625 C5.42486328 2.83240234 5.42486328 2.83240234 4.13671875 2.59765625 C2 2 2 2 0 0 Z " fill="#023552" transform="translate(136,142)"/>
<path d="M0 0 C-2.29032311 0.83719383 -4.58210957 1.6698929 -6.875 2.5 C-7.52597656 2.73847656 -8.17695313 2.97695312 -8.84765625 3.22265625 C-13.7734375 5 -13.7734375 5 -16 5 C-15.67 4.01 -15.34 3.02 -15 2 C-12.3828125 1.015625 -12.3828125 1.015625 -9.125 0.25 C-8.05507812 -0.01296875 -6.98515625 -0.2759375 -5.8828125 -0.546875 C-3 -1 -3 -1 0 0 Z " fill="#052476" transform="translate(231,138)"/>
<path d="M0 0 C0.66 0 1.32 0 2 0 C2.22304441 1.74818591 2.4278645 3.49870323 2.625 5.25 C2.74101563 6.22453125 2.85703125 7.1990625 2.9765625 8.203125 C3.00112537 11.13429393 2.5312717 12.54528964 1 15 C-0.03590199 9.94997778 -0.10251672 5.12583611 0 0 Z " fill="#025B9F" transform="translate(866,117)"/>
<path d="M0 0 C0.66 0.99 1.32 1.98 2 3 C1.67 3.33 1.34 3.66 1 4 C0.84285346 5.63256758 0.74914586 7.27135338 0.68359375 8.91015625 C0.64169922 9.89951172 0.59980469 10.88886719 0.55664062 11.90820312 C0.51732422 12.94912109 0.47800781 13.99003906 0.4375 15.0625 C0.39431641 16.10728516 0.35113281 17.15207031 0.30664062 18.22851562 C0.20018775 20.81886884 0.0981724 23.40932186 0 26 C-0.33 26 -0.66 26 -1 26 C-1.02892857 22.04168191 -1.04677427 18.08339083 -1.0625 14.125 C-1.07087891 12.99707031 -1.07925781 11.86914062 -1.08789062 10.70703125 C-1.09111328 9.63066406 -1.09433594 8.55429687 -1.09765625 7.4453125 C-1.10289307 6.45031738 -1.10812988 5.45532227 -1.11352539 4.43017578 C-1 2 -1 2 0 0 Z " fill="#7927F8" transform="translate(137,255)"/>
<path d="M0 0 C0.639375 0.165 1.27875 0.33 1.9375 0.5 C7.34608243 1.38303387 12.70413774 1.5131035 18 0 C18 0.66 18 1.32 18 2 C12.84776142 3.44624241 8.40540418 4.42395327 3 4 C2.01 3.34 1.02 2.68 0 2 C0 1.34 0 0.68 0 0 Z " fill="#6234BB" transform="translate(656,240)"/>
<path d="M0 0 C0.99 0.33 1.98 0.66 3 1 C-0.08632611 4.2626876 -2.93483504 7.02235218 -7 9 C-7.66 8.67 -8.32 8.34 -9 8 C-6.03 5.36 -3.06 2.72 0 0 Z " fill="#0366B7" transform="translate(172,172)"/>
<path d="M0 0 C-5.71552641 3.81035094 -13.1463221 5.55570361 -20 5 C-20 4.67 -20 4.34 -20 4 C-19.09636719 3.72285156 -18.19273437 3.44570312 -17.26171875 3.16015625 C-16.08222656 2.79792969 -14.90273438 2.43570313 -13.6875 2.0625 C-11.92986328 1.52302734 -11.92986328 1.52302734 -10.13671875 0.97265625 C-3.49854651 -1.08575581 -3.49854651 -1.08575581 0 0 Z " fill="#043051" transform="translate(311,126)"/>
<path d="M0 0 C2.49552403 2.27597646 4.06622986 4.60721178 5.6875 7.5625 C6.12449219 8.34753906 6.56148437 9.13257812 7.01171875 9.94140625 C8 12 8 12 8 14 C7.34 14 6.68 14 6 14 C5.17886823 12.60922699 4.36847505 11.21211107 3.5625 9.8125 C3.11003906 9.03519531 2.65757812 8.25789063 2.19140625 7.45703125 C0.97608501 4.95068023 0.42373425 2.74209635 0 0 Z " fill="#003253" transform="translate(155,63)"/>
<path d="M0 0 C2.475 0.99 2.475 0.99 5 2 C5 2.66 5 3.32 5 4 C5.763125 4.268125 6.52625 4.53625 7.3125 4.8125 C9.87380884 5.94424112 11.19692938 6.91223401 13 9 C11.68 9 10.36 9 9 9 C9 8.34 9 7.68 9 7 C8.2575 6.7525 7.515 6.505 6.75 6.25 C3.78592854 4.90269479 2.12500716 3.43982304 0 1 C0 0.67 0 0.34 0 0 Z " fill="#9E1FC8" transform="translate(160,329)"/>
<path d="M0 0 C0.33 0 0.66 0 1 0 C1 3.63 1 7.26 1 11 C1.66 11 2.32 11 3 11 C4.625 13 4.625 13 6 15 C4.02 15 2.04 15 0 15 C0 10.05 0 5.1 0 0 Z " fill="#7B37D2" transform="translate(791,246)"/>
<path d="M0 0 C4.82675589 2.41337795 7.69984002 5.86062408 11 10 C10.67 10.66 10.34 11.32 10 12 C9.401875 11.360625 8.80375 10.72125 8.1875 10.0625 C6.09189663 7.79689611 6.09189663 7.79689611 3 7 C0 2.66666667 0 2.66666667 0 0 Z " fill="#004E95" transform="translate(192,160)"/>
<path d="M0 0 C7.75 -0.125 7.75 -0.125 10 1 C10 1.66 10 2.32 10 3 C11.65 3 13.3 3 15 3 C15 3.33 15 3.66 15 4 C9.1977825 4.36263859 5.36000789 3.25684543 0 1 C0 0.67 0 0.34 0 0 Z " fill="#031A79" transform="translate(243,195)"/>
<path d="M0 0 C2.25170312 2.25170312 2.51474 3.32987578 3.1875 6.375 C3.36667969 7.14585937 3.54585937 7.91671875 3.73046875 8.7109375 C4.01304909 11.11082272 3.73503321 12.71670535 3 15 C2.67 12.69 2.34 10.38 2 8 C1.34 8 0.68 8 0 8 C0 5.36 0 2.72 0 0 Z " fill="#2B3D92" transform="translate(706,183)"/>
<path d="M0 0 C0.66 0.33 1.32 0.66 2 1 C0.73548068 2.31858428 -0.53685475 3.62967631 -1.8125 4.9375 C-2.52019531 5.66839844 -3.22789062 6.39929688 -3.95703125 7.15234375 C-6 9 -6 9 -9 10 C-7.61811547 6.78956118 -6.07578097 4.95063635 -3.375 2.75 C-2.74335938 2.22921875 -2.11171875 1.7084375 -1.4609375 1.171875 C-0.73777344 0.59179688 -0.73777344 0.59179688 0 0 Z " fill="#AE16D1" transform="translate(224,320)"/>
<path d="M0 0 C0.66 0.33 1.32 0.66 2 1 C0.56036361 4.35915158 -1.12416589 6.71624938 -4 9 C-6.25 8.75 -6.25 8.75 -8 8 C-3.375 3.125 -3.375 3.125 0 2 C0 1.34 0 0.68 0 0 Z " fill="#0041E2" transform="translate(146,182)"/>
<path d="M0 0 C0.33 0 0.66 0 1 0 C1.37851209 5.93002267 0.10575375 10.47239641 -2 16 C-2.33 16 -2.66 16 -3 16 C-3.042721 14.33388095 -3.04063832 12.66617115 -3 11 C-2.67 10.67 -2.34 10.34 -2 10 C-2.020625 8.88625 -2.04125 7.7725 -2.0625 6.625 C-2 3 -2 3 0 0 Z " fill="#0047CC" transform="translate(337,136)"/>
<path d="M0 0 C0.66 0 1.32 0 2 0 C0.515 6.435 0.515 6.435 -1 13 C-1.33 13 -1.66 13 -2 13 C-2.05447047 11.58376784 -2.09300508 10.16691809 -2.125 8.75 C-2.14820313 7.96109375 -2.17140625 7.1721875 -2.1953125 6.359375 C-1.9828378 3.79268059 -1.28654105 2.2083933 0 0 Z " fill="#2B3683" transform="translate(644,187)"/>
<path d="M0 0 C1.32 0.33 2.64 0.66 4 1 C3 4 3 4 0.5625 5.75 C-0.7059375 6.36875 -0.7059375 6.36875 -2 7 C-2.66 6.67 -3.32 6.34 -4 6 C-2.68 4.02 -1.36 2.04 0 0 Z " fill="#5031A5" transform="translate(681,231)"/>
<path d="M0 0 C1 3 1 3 0.00390625 5.26171875 C-0.47175781 6.06222656 -0.94742187 6.86273438 -1.4375 7.6875 C-1.91058594 8.49574219 -2.38367188 9.30398437 -2.87109375 10.13671875 C-3.24363281 10.75160156 -3.61617188 11.36648437 -4 12 C-5.43088528 9.13822943 -4.59991697 7.06624227 -4 4 C-3.01 4 -2.02 4 -1 4 C-0.67 2.68 -0.34 1.36 0 0 Z " fill="#01154F" transform="translate(333,156)"/>
<path d="M0 0 C0.66 0.33 1.32 0.66 2 1 C1.07038578 2.15224028 0.1309875 3.29659176 -0.8125 4.4375 C-1.59560547 5.39462891 -1.59560547 5.39462891 -2.39453125 6.37109375 C-4 8 -4 8 -7 9 C-5.44499019 5.18315774 -2.96404505 2.80804268 0 0 Z " fill="#254EA5" transform="translate(591,162)"/>
<path d="M0 0 C2.9156164 3.54039134 5.50127818 7.1626772 8 11 C3.78926767 9.49616703 2.16762883 6.79335044 0 3 C0 2.01 0 1.02 0 0 Z " fill="#240340" transform="translate(135,302)"/>
<path d="M0 0 C0.66 0.33 1.32 0.66 2 1 C0.35 2.98 -1.3 4.96 -3 7 C-4.32 6.67 -5.64 6.34 -7 6 C-4.69 4.02 -2.38 2.04 0 0 Z " fill="#04488D" transform="translate(161,181)"/>
<path d="M0 0 C0.99 0.33 1.98 0.66 3 1 C-1.455 3.97 -1.455 3.97 -6 7 C-6 6.01 -6 5.02 -6 4 C-3.1875 1.75 -3.1875 1.75 0 0 Z " fill="#051860" transform="translate(149,184)"/>
<path d="M0 0 C2.88437779 1.29299694 4.87219421 2.65941363 7 5 C6.67 5.66 6.34 6.32 6 7 C5.566875 6.505 5.13375 6.01 4.6875 5.5 C3.00259517 3.66781808 3.00259517 3.66781808 0 4 C0 2.68 0 1.36 0 0 Z " fill="#011226" transform="translate(194,158)"/>
<path d="M0 0 C1.98 0 3.96 0 6 0 C6.66 1.32 7.32 2.64 8 4 C7.01 4.66 6.02 5.32 5 6 C3.5 4.625 3.5 4.625 2 3 C2 2.34 2 1.68 2 1 C1.34 0.67 0.68 0.34 0 0 Z " fill="#02223C" transform="translate(187,154)"/>
<path d="M0 0 C0.66 0.33 1.32 0.66 2 1 C1.34 1.66 0.68 2.32 0 3 C-0.64767793 5.57061311 -0.64767793 5.57061311 -1 8 C-1.99 8.33 -2.98 8.66 -4 9 C-3.38461538 3.46153846 -3.38461538 3.46153846 -1.4375 1.125 C-0.963125 0.75375 -0.48875 0.3825 0 0 Z " fill="#04436E" transform="translate(840,111)"/>
<path d="M0 0 C2.475 0.99 2.475 0.99 5 2 C4.33333333 3.33333333 3.66666667 4.66666667 3 6 C2.01 5.67 1.02 5.34 0 5 C0 3.35 0 1.7 0 0 Z " fill="#3C14AC" transform="translate(239,233)"/>
<path d="M0 0 C0.66 0.33 1.32 0.66 2 1 C2.36923077 6.53846154 2.36923077 6.53846154 0.5 8.875 C-0.2425 9.431875 -0.2425 9.431875 -1 10 C-1.125 2.25 -1.125 2.25 0 0 Z " fill="#227CEB" transform="translate(727,136)"/>
<path d="M0 0 C1.98 0.66 3.96 1.32 6 2 C6 2.66 6 3.32 6 4 C7.32 4.33 8.64 4.66 10 5 C6.63295715 5.2295711 4.58629732 5.33943529 1.625 3.625 C1.08875 3.08875 0.5525 2.5525 0 2 C0 1.34 0 0.68 0 0 Z " fill="#164F98" transform="translate(510,134)"/>
<path d="M0 0 C1.5 1 1.5 1 3 3 C3.27345479 5.71846235 3.13491285 8.25677199 3 11 C0.43383368 7.15075052 0.44902324 4.5650696 0 0 Z " fill="#9224F8" transform="translate(137,281)"/>
<path d="M0 0 C0.33 0 0.66 0 1 0 C1 3.3 1 6.6 1 10 C-0.32 9.67 -1.64 9.34 -3 9 C-2.01 6.03 -1.02 3.06 0 0 Z " fill="#8942EE" transform="translate(426,251)"/>
<path d="M0 0 C0.33 0.99 0.66 1.98 1 3 C-0.65 4.65 -2.3 6.3 -4 8 C-4.66 7.67 -5.32 7.34 -6 7 C-5.34 5.68 -4.68 4.36 -4 3 C-3.01 3 -2.02 3 -1 3 C-0.67 2.01 -0.34 1.02 0 0 Z " fill="#5B1AE3" transform="translate(288,241)"/>
<path d="M0 0 C3.37462715 0.54723683 5.08235 1.0549 8 3 C8 3.66 8 4.32 8 5 C2.25 3.375 2.25 3.375 0 0 Z " fill="#011E81" transform="translate(224,184)"/>
<path d="M0 0 C2.0245738 1.93254772 3.42105792 3.63158688 5 6 C4.67 6.99 4.34 7.98 4 9 C0 4.5 0 4.5 0 0 Z " fill="#002038" transform="translate(46,167)"/>
<path d="M0 0 C0.33 0.66 0.66 1.32 1 2 C-0.3125 4.625 -0.3125 4.625 -2 7 C-2.66 7 -3.32 7 -4 7 C-3.43628586 3.73045798 -2.50037734 2.17424117 0 0 Z " fill="#28418A" transform="translate(628,169)"/>
<path d="M0 0 C1.43088528 2.86177057 0.59991697 4.93375773 0 8 C-1.5625 6.75 -1.5625 6.75 -3 5 C-2.8125 2.875 -2.8125 2.875 -2 1 C-1.34 0.67 -0.68 0.34 0 0 Z " fill="#004956" transform="translate(120,47)"/>
</svg>
